<?xml version="1.0" encoding="UTF-8" standalone="no"?>
<svg width="36px" height="36px" viewBox="0 0 36 36" version="1.1" xmlns="http://www.w3.org/2000/svg" xmlns:xlink="http://www.w3.org/1999/xlink">
    <!-- Generator: Sketch 3.8.3 (29802) - http://www.bohemiancoding.com/sketch -->
    <title>1</title>
    <desc>Created with Sketch.</desc>
    <defs></defs>
    <g id="Page-1" stroke="none" stroke-width="1" fill="none" fill-rule="evenodd">
        <g id="1">
            <path d="M18,36 C27.9411255,36 36,27.9411255 36,18 C36,8.0588745 27.9411255,0 18,0 C8.0588745,0 0,8.0588745 0,18 C0,27.9411255 8.0588745,36 18,36 Z" id="Oval-429" fill="#41D9D6"></path>
            <path d="M22.2799997,24.1208885 L22.2799997,25.7191107 L13.5413333,25.7191107 L13.5413333,24.1208885 L17.2017777,24.1208885 L17.2017777,13.0879999 C17.0471102,13.2942232 16.80652,13.5176284 16.4799999,13.7582221 C16.1534798,13.9988159 15.7882982,14.2222211 15.3844444,14.4284443 C14.9805905,14.6346676 14.563854,14.8065177 14.1342222,14.9439999 C13.7045904,15.0814821 13.3265201,15.1502221 13,15.1502221 L13,13.4488888 C13.3952612,13.4488888 13.8291828,13.3371862 14.3017777,13.1137777 C14.7743727,12.8903692 15.221183,12.632594 15.6422221,12.3404444 C16.0632613,12.0482948 16.4198503,11.7733346 16.7119999,11.5155555 C17.0041495,11.2577765 17.1674071,11.0859264 17.2017777,11 L19.006222,11 L19.006222,24.1208885 L22.2799997,24.1208885 Z" fill="#FFFFFF"></path>
        </g>
    </g>
</svg>