<?xml version="1.0" encoding="UTF-8" standalone="no"?>
<svg width="36px" height="36px" viewBox="0 0 36 36" version="1.1" xmlns="http://www.w3.org/2000/svg" xmlns:xlink="http://www.w3.org/1999/xlink">
    <!-- Generator: Sketch 3.8.3 (29802) - http://www.bohemiancoding.com/sketch -->
    <title>2</title>
    <desc>Created with Sketch.</desc>
    <defs></defs>
    <g id="Page-1" stroke="none" stroke-width="1" fill="none" fill-rule="evenodd">
        <g id="2">
            <circle id="Oval-429" fill="#41D9D6" cx="18" cy="18" r="18"></circle>
            <path d="M13,25.342168 C13,24.7332606 13.0534843,24.1367047 13.1604545,23.5524827 C13.2674248,22.9682607 13.4731337,22.4046183 13.7775874,21.8615386 C14.0820412,21.318459 14.5016873,20.7959584 15.0365385,20.2940211 C15.5713897,19.7920839 16.2584574,19.3189534 17.0977623,18.8746155 C17.5421002,18.6442181 18.023459,18.4097099 18.5418532,18.171084 C19.0602474,17.9324581 19.5416063,17.6650365 19.9859442,17.3688113 C20.430282,17.072586 20.7964439,16.7434518 21.0844407,16.3813987 C21.3724375,16.0193456 21.5164337,15.5914711 21.5164337,15.0977623 C21.5164337,14.7850801 21.4464927,14.4724025 21.3066085,14.1597203 C21.1667244,13.8470381 20.9610155,13.567274 20.6894756,13.3204196 C20.4179358,13.0735652 20.0805732,12.8760847 19.6773777,12.7279721 C19.2741822,12.5798594 18.8092801,12.5058042 18.2826574,12.5058042 C17.7395778,12.5058042 17.2499906,12.5839736 16.8138812,12.7403147 C16.3777718,12.8966558 15.9951532,13.0817938 15.666014,13.2957343 C15.3368748,13.5096748 15.0612249,13.7359546 14.839056,13.9745805 C14.616887,14.2132064 14.4482057,14.4065727 14.333007,14.5546854 L13.2221678,13.3451049 C13.3209096,13.2463632 13.5101618,13.0653393 13.7899301,12.802028 C14.0696984,12.5387167 14.4358602,12.2754093 14.8884266,12.0120979 C15.340993,11.7487866 15.8758361,11.5142784 16.4929721,11.3085664 C17.110108,11.1028545 17.8054041,11 18.5788812,11 C19.3194444,11 19.981827,11.1028545 20.5660491,11.3085664 C21.1502711,11.5142784 21.6480866,11.7981567 22.0595106,12.1602098 C22.4709346,12.5222629 22.7836121,12.9377949 22.9975526,13.4068182 C23.2114931,13.8758415 23.3184617,14.3736571 23.3184617,14.9002798 C23.3184617,15.5914721 23.1580087,16.1880279 22.837098,16.6899651 C22.5161873,17.1919024 22.1253404,17.6238911 21.6645456,17.9859442 C21.2037507,18.3479973 20.7306203,18.6442181 20.24514,18.8746155 C19.7596597,19.1050129 19.3605844,19.2942651 19.0479022,19.4423777 C18.307339,19.7715169 17.6902123,20.0924228 17.1965036,20.405105 C16.7027948,20.7177873 16.2996053,21.0386931 15.9869231,21.3678323 C15.6742409,21.6969715 15.4397328,22.0590192 15.2833916,22.4539862 C15.1270505,22.8489532 15.0159677,23.3015128 14.9501399,23.8116785 L23.5900002,23.8116785 L23.5900002,25.342168 L13,25.342168 Z" fill="#FFFFFF"></path>
        </g>
    </g>
</svg>