<?xml version="1.0" encoding="UTF-8" standalone="no"?>
<svg width="36px" height="36px" viewBox="0 0 36 36" version="1.1" xmlns="http://www.w3.org/2000/svg" xmlns:xlink="http://www.w3.org/1999/xlink">
    <!-- Generator: Sketch 3.8.3 (29802) - http://www.bohemiancoding.com/sketch -->
    <title>3</title>
    <desc>Created with Sketch.</desc>
    <defs></defs>
    <g id="Page-1" stroke="none" stroke-width="1" fill="none" fill-rule="evenodd">
        <g id="3">
            <path d="M18,36 C27.9411255,36 36,27.9411255 36,18 C36,8.0588745 27.9411255,0 18,0 C8.0588745,0 0,8.0588745 0,18 C0,27.9411255 8.0588745,36 18,36 Z" id="Oval-429" fill="#41D9D6"></path>
            <path d="M20.3877775,17.2355553 C21.4535606,17.4131858 22.3053669,17.8976254 22.9432219,18.6888885 C23.5810769,19.4801517 23.8999996,20.4571049 23.8999996,21.6197773 C23.8999996,22.3464476 23.7667787,23.012552 23.500333,23.6181106 C23.2338872,24.2236692 22.8544095,24.7404047 22.3618886,25.1683328 C21.8693676,25.5962608 21.2799661,25.9272945 20.5936664,26.1614438 C19.9073667,26.3955932 19.1443744,26.5126661 18.3046665,26.5126661 C17.0774011,26.5126661 16.0035601,26.2664093 15.083111,25.7738883 C14.162662,25.2813673 13.4682986,24.5991149 13,23.7271106 L14.1384444,22.6855551 C14.4775572,23.3960771 14.9942928,23.9612566 15.6886666,24.3811106 C16.3830404,24.8009645 17.2550316,25.0108883 18.3046665,25.0108883 C19.5157836,25.0108883 20.4685148,24.7161876 21.1628886,24.1267772 C21.8572624,23.5373669 22.2044441,22.6936346 22.2044441,21.5955551 C22.2044441,20.4813274 21.8411144,19.6012621 21.1144442,18.955333 C20.3877739,18.3094039 19.3381548,17.9864441 17.9655554,17.9864441 L17.3599998,17.9864441 L17.3599998,16.5815553 L18.0139998,16.5815553 C19.2574134,16.5815553 20.2101446,16.2908915 20.8722219,15.7095553 C21.5342993,15.1282191 21.865333,14.3773377 21.865333,13.4568887 C21.865333,12.9724419 21.7765191,12.5485572 21.5988886,12.1852221 C21.4212581,11.821887 21.1750013,11.5150752 20.8601108,11.2647777 C20.5452204,11.0144802 20.1738167,10.8247413 19.7458887,10.6955555 C19.3179606,10.5663697 18.853706,10.5017777 18.3531109,10.5017777 C17.4326619,10.5017777 16.6212256,10.7076645 15.9187777,11.1194444 C15.2163297,11.5312242 14.6874832,12.1004407 14.3322222,12.827111 L13.2664444,11.8097777 C13.4602232,11.3899237 13.7347389,11.0064091 14.09,10.6592222 C14.445261,10.3120353 14.8489606,10.0173345 15.301111,9.77511108 C15.7532614,9.53288766 16.253849,9.34314882 16.8028888,9.20588888 C17.3519285,9.06862894 17.917108,9 18.4984443,9 C19.2412628,9 19.9235152,9.10496191 20.545222,9.31488888 C21.1669287,9.52481585 21.7038493,9.81951659 22.1559997,10.199 C22.6081501,10.5784833 22.9593688,11.0346639 23.2096663,11.5675555 C23.4599638,12.100447 23.5851107,12.6898485 23.5851107,13.3357776 C23.5851107,13.8202245 23.5124448,14.2844791 23.3671107,14.7285554 C23.2217767,15.1726316 23.0118529,15.5682573 22.737333,15.9154442 C22.4628131,16.2626311 22.1277424,16.5532949 21.7321108,16.7874442 C21.3364792,17.0215935 20.8883726,17.1709624 20.3877775,17.2355553 L20.3877775,17.2355553 Z" fill="#FFFFFF"></path>
        </g>
    </g>
</svg>