<?xml version="1.0" encoding="UTF-8" standalone="no"?>
<svg width="36px" height="36px" viewBox="0 0 36 36" version="1.1" xmlns="http://www.w3.org/2000/svg" xmlns:xlink="http://www.w3.org/1999/xlink">
    <!-- Generator: Sketch 3.8.3 (29802) - http://www.bohemiancoding.com/sketch -->
    <title>4</title>
    <desc>Created with Sketch.</desc>
    <defs></defs>
    <g id="Page-1" stroke="none" stroke-width="1" fill="none" fill-rule="evenodd">
        <g id="4">
            <path d="M18,36 C27.9411255,36 36,27.9411255 36,18 C36,8.0588745 27.9411255,0 18,0 C8.0588745,0 0,8.0588745 0,18 C0,27.9411255 8.0588745,36 18,36 Z" id="Oval-429" fill="#41D9D6"></path>
            <path d="M19.5749387,25.9200815 L19.5749387,21.350204 L11,21.350204 L11,19.8097958 L20.1140816,8 L21.3207346,8 L21.3207346,19.7584489 L23.5799999,19.7584489 L23.5799999,21.350204 L21.3207346,21.350204 L21.3207346,25.9200815 L19.5749387,25.9200815 Z M12.8484898,19.7584489 L19.7289795,19.7584489 L19.7289795,10.7470612 L12.8484898,19.7584489 Z" fill="#FFFFFF"></path>
        </g>
    </g>
</svg>