<?xml version="1.0" encoding="UTF-8" standalone="no"?>
<svg width="514px" height="371px" viewBox="0 0 514 371" version="1.1" xmlns="http://www.w3.org/2000/svg" xmlns:xlink="http://www.w3.org/1999/xlink">
    <!-- Generator: Sketch 3.8.3 (29802) - http://www.bohemiancoding.com/sketch -->
    <title>BlogFeature</title>
    <desc>Created with Sketch.</desc>
    <defs>
        <rect id="path-1" x="0" y="0" width="384" height="264" rx="9"></rect>
        <mask id="mask-2" maskContentUnits="userSpaceOnUse" maskUnits="objectBoundingBox" x="0" y="0" width="384" height="264" fill="white">
            <use xlink:href="#path-1"></use>
        </mask>
        <rect id="path-3" x="16" y="16" width="352" height="198"></rect>
        <mask id="mask-4" maskContentUnits="userSpaceOnUse" maskUnits="objectBoundingBox" x="0" y="0" width="352" height="198" fill="white">
            <use xlink:href="#path-3"></use>
        </mask>
        <rect id="path-5" x="155" y="263" width="74" height="36"></rect>
        <mask id="mask-6" maskContentUnits="userSpaceOnUse" maskUnits="objectBoundingBox" x="0" y="0" width="74" height="36" fill="white">
            <use xlink:href="#path-5"></use>
        </mask>
        <polygon id="path-7" points="7.81249276 0.314752941 0.277023142 0.314752941 0.277023142 8.31443209 7.81249276 8.31443209 7.81249276 0.314752941"></polygon>
        <polygon id="path-9" points="0.000123529412 19.5679739 19.9505353 19.5679739 19.9505353 0.031725098 0.000123529412 0.031725098 0.000123529412 19.5679739"></polygon>
    </defs>
    <g id="Page-1" stroke="none" stroke-width="1" fill="none" fill-rule="evenodd">
        <g id="BlogFeature">
            <g id="iMac" transform="translate(65.000000, 36.000000)">
                <use stroke="#857C82" mask="url(#mask-2)" stroke-width="2" xlink:href="#path-1"></use>
                <use id="Screen" stroke="#857C82" mask="url(#mask-4)" stroke-width="2" xlink:href="#path-3"></use>
                <use id="Stand" stroke="#857C82" mask="url(#mask-6)" stroke-width="2" xlink:href="#path-5"></use>
                <rect id="Screen-Divider" fill="#857C82" x="1" y="229" width="382" height="1"></rect>
                <rect id="Stand-Base" fill="#857C82" x="127" y="298" width="130" height="1"></rect>
                <path d="M192,10 C192.552285,10 193,9.55228475 193,9 C193,8.44771525 192.552285,8 192,8 C191.447715,8 191,8.44771525 191,9 C191,9.55228475 191.447715,10 192,10 Z" id="Camera" fill="#857C82"></path>
            </g>
            <path d="M131,124 L314,124" id="Line" stroke="#979797" stroke-linecap="square"></path>
            <path d="M131,136 L308,136" id="Line" stroke="#979797" stroke-linecap="square"></path>
            <path d="M131,148 L309,148" id="Line" stroke="#979797" stroke-linecap="square"></path>
            <path d="M131,160 L305,160" id="Line" stroke="#979797" stroke-linecap="square"></path>
            <path d="M131,171 L311,171" id="Line" stroke="#979797" stroke-linecap="square"></path>
            <path d="M131,183 L260,183" id="Line" stroke="#979797" stroke-linecap="square"></path>
            <path d="M131,205 L308,205" id="Line" stroke="#979797" stroke-linecap="square"></path>
            <path d="M131,217 L313,217" id="Line" stroke="#979797" stroke-linecap="square"></path>
            <path d="M131.5,228.5 L316.5,228.5" id="Line" stroke="#979797" stroke-linecap="square"></path>
            <path d="M131,240 L288,240" id="Line" stroke="#979797" stroke-linecap="square"></path>
            <path d="M125.05,67.969 L125.05,69.11 L121.809,69.11 L121.809,78 L120.451,78 L120.451,69.11 L117.196,69.11 L117.196,67.969 L125.05,67.969 Z M126.282,78 L126.282,67.689 L127.528,67.689 L127.528,71.861 C127.831335,71.5389984 128.167331,71.2811676 128.536,71.0875 C128.904669,70.8938324 129.329331,70.797 129.81,70.797 C130.197335,70.797 130.539165,70.861166 130.8355,70.9895 C131.131835,71.117834 131.379166,71.2998322 131.5775,71.5355 C131.775834,71.7711678 131.926333,72.054665 132.029,72.386 C132.131667,72.717335 132.183,73.0836647 132.183,73.485 L132.183,78 L130.937,78 L130.937,73.485 C130.937,72.9483307 130.814501,72.5318348 130.5695,72.2355 C130.324499,71.9391652 129.950003,71.791 129.446,71.791 C129.077331,71.791 128.733168,71.8796658 128.4135,72.057 C128.093832,72.2343342 127.798668,72.4746651 127.528,72.778 L127.528,78 L126.282,78 Z M136.873,70.797 C137.297669,70.797 137.689665,70.868166 138.049,71.0105 C138.408335,71.152834 138.718665,71.3581653 138.98,71.6265 C139.241335,71.8948347 139.445499,72.2261647 139.5925,72.6205 C139.739501,73.0148353 139.813,73.4639975 139.813,73.968 C139.813,74.164001 139.792,74.2946663 139.75,74.36 C139.708,74.4253337 139.628667,74.458 139.512,74.458 L134.794,74.458 C134.803333,74.9060022 134.863999,75.295665 134.976,75.627 C135.088001,75.958335 135.241999,76.2348322 135.438,76.4565 C135.634001,76.6781678 135.867332,76.8438328 136.138,76.9535 C136.408668,77.0631672 136.711998,77.118 137.048,77.118 C137.360668,77.118 137.630166,77.0818337 137.8565,77.0095 C138.082834,76.9371663 138.277666,76.8590004 138.441,76.775 C138.604334,76.6909996 138.740833,76.6128337 138.8505,76.5405 C138.960167,76.4681663 139.054666,76.432 139.134,76.432 C139.236667,76.432 139.316,76.4716663 139.372,76.551 L139.722,77.006 C139.567999,77.1926676 139.383668,77.3548326 139.169,77.4925 C138.954332,77.6301674 138.724501,77.7433329 138.4795,77.832 C138.234499,77.9206671 137.981335,77.9871664 137.72,78.0315 C137.458665,78.0758336 137.199668,78.098 136.943,78.098 C136.452998,78.098 136.001502,78.0151675 135.5885,77.8495 C135.175498,77.6838325 134.818502,77.4411683 134.5175,77.1215 C134.216498,76.8018317 133.982001,76.4063357 133.814,75.935 C133.645999,75.4636643 133.562,74.9223364 133.562,74.311 C133.562,73.8163309 133.637833,73.3543355 133.7895,72.925 C133.941167,72.4956645 134.159332,72.1235016 134.444,71.8085 C134.728668,71.4934984 135.076331,71.2461676 135.487,71.0665 C135.897669,70.8868324 136.359664,70.797 136.873,70.797 L136.873,70.797 Z M136.901,71.714 C136.298997,71.714 135.825335,71.8878316 135.48,72.2355 C135.134665,72.5831684 134.92,73.0649969 134.836,73.681 L138.693,73.681 C138.693,73.3916652 138.653334,73.1268345 138.574,72.8865 C138.494666,72.6461655 138.378001,72.4385009 138.224,72.2635 C138.069999,72.0884991 137.882168,71.9531671 137.6605,71.8575 C137.438832,71.7618329 137.185668,71.714 136.901,71.714 L136.901,71.714 Z M144.3,78 L144.3,67.969 L147.499,67.969 C148.115003,67.969 148.645831,68.0296661 149.0915,68.151 C149.537169,68.2723339 149.903499,68.4449989 150.1905,68.669 C150.477501,68.8930011 150.689833,69.167165 150.8275,69.4915 C150.965167,69.815835 151.034,70.180998 151.034,70.587 C151.034,70.8343346 150.9955,71.0723322 150.9185,71.301 C150.8415,71.5296678 150.724834,71.741999 150.5685,71.938 C150.412166,72.134001 150.216168,72.3089992 149.9805,72.463 C149.744832,72.6170008 149.468335,72.7429995 149.151,72.841 C149.88367,72.9856674 150.436665,73.2493314 150.81,73.632 C151.183335,74.0146686 151.37,74.5186635 151.37,75.144 C151.37,75.5686688 151.291834,75.9559982 151.1355,76.306 C150.979166,76.6560018 150.750502,76.9569987 150.4495,77.209 C150.148498,77.4610013 149.779836,77.6558326 149.3435,77.7935 C148.907164,77.9311674 148.409003,78 147.849,78 L144.3,78 Z M145.658,73.429 L145.658,76.922 L147.828,76.922 C148.215335,76.922 148.547832,76.8776671 148.8255,76.789 C149.103168,76.7003329 149.331832,76.5755008 149.5115,76.4145 C149.691168,76.2534992 149.823,76.0621678 149.907,75.8405 C149.991,75.6188322 150.033,75.3750013 150.033,75.109 C150.033,74.5909974 149.849835,74.1815015 149.4835,73.8805 C149.117165,73.5794985 148.563004,73.429 147.821,73.429 L145.658,73.429 Z M145.658,72.463 L147.45,72.463 C147.832669,72.463 148.163999,72.4210004 148.444,72.337 C148.724001,72.2529996 148.956166,72.1363341 149.1405,71.987 C149.324834,71.8376659 149.461333,71.6568344 149.55,71.4445 C149.638667,71.2321656 149.683,71.0000013 149.683,70.748 C149.683,70.1599971 149.505668,69.7283347 149.151,69.453 C148.796332,69.1776653 148.24567,69.04 147.499,69.04 L145.658,69.04 L145.658,72.463 Z M158.37,78 L157.817,78 C157.695666,78 157.597667,77.9813335 157.523,77.944 C157.448333,77.9066665 157.399333,77.8273339 157.376,77.706 L157.236,77.048 C157.049332,77.2160008 156.867334,77.3664993 156.69,77.4995 C156.512666,77.6325007 156.326001,77.7444995 156.13,77.8355 C155.933999,77.9265005 155.725168,77.9953331 155.5035,78.042 C155.281832,78.0886669 155.035668,78.112 154.765,78.112 C154.489665,78.112 154.231835,78.0735004 153.9915,77.9965 C153.751165,77.9194996 153.542334,77.8040008 153.365,77.65 C153.187666,77.4959992 153.046501,77.3011678 152.9415,77.0655 C152.836499,76.8298322 152.784,76.5510016 152.784,76.229 C152.784,75.9489986 152.860999,75.6795013 153.015,75.4205 C153.169001,75.1614987 153.417498,74.9316677 153.7605,74.731 C154.103502,74.5303323 154.552664,74.365834 155.108,74.2375 C155.663336,74.109166 156.342329,74.0356668 157.145,74.017 L157.145,73.464 C157.145,72.9133306 157.027168,72.4968347 156.7915,72.2145 C156.555832,71.9321653 156.207002,71.791 155.745,71.791 C155.441665,71.791 155.186168,71.8294996 154.9785,71.9065 C154.770832,71.9835004 154.591167,72.0698329 154.4395,72.1655 C154.287833,72.2611671 154.157167,72.3474996 154.0475,72.4245 C153.937833,72.5015004 153.829334,72.54 153.722,72.54 C153.638,72.54 153.5645,72.5178336 153.5015,72.4735 C153.4385,72.4291664 153.388334,72.3743337 153.351,72.309 L153.127,71.91 C153.519002,71.5319981 153.941331,71.2496676 154.394,71.063 C154.846669,70.8763324 155.348331,70.783 155.899,70.783 C156.295669,70.783 156.647998,70.8483327 156.956,70.979 C157.264002,71.1096673 157.522999,71.2916655 157.733,71.525 C157.943001,71.7583345 158.101666,72.040665 158.209,72.372 C158.316334,72.703335 158.37,73.0673314 158.37,73.464 L158.37,78 Z M155.136,77.237 C155.355334,77.237 155.555999,77.2148336 155.738,77.1705 C155.920001,77.1261664 156.091499,77.0631671 156.2525,76.9815 C156.413501,76.8998329 156.567499,76.8006673 156.7145,76.684 C156.861501,76.5673328 157.004999,76.4343341 157.145,76.285 L157.145,74.808 C156.570997,74.8266668 156.083335,74.8721663 155.682,74.9445 C155.280665,75.0168337 154.954001,75.1113328 154.702,75.228 C154.449999,75.3446673 154.266834,75.4823325 154.1525,75.641 C154.038166,75.7996675 153.981,75.976999 153.981,76.173 C153.981,76.3596676 154.011333,76.520666 154.072,76.656 C154.132667,76.791334 154.214333,76.9021662 154.317,76.9885 C154.419667,77.0748338 154.540999,77.1378331 154.681,77.1775 C154.821001,77.2171669 154.972666,77.237 155.136,77.237 L155.136,77.237 Z M165.097,72.169 C165.059666,72.2203336 165.022334,72.2599999 164.985,72.288 C164.947666,72.3160001 164.894,72.33 164.824,72.33 C164.754,72.33 164.678167,72.3008336 164.5965,72.2425 C164.514833,72.1841664 164.411001,72.1200003 164.285,72.05 C164.158999,71.9799996 164.006168,71.9158336 163.8265,71.8575 C163.646832,71.7991664 163.426335,71.77 163.165,71.77 C162.819665,71.77 162.514001,71.8318327 162.248,71.9555 C161.981999,72.0791673 161.759168,72.2576655 161.5795,72.491 C161.399832,72.7243345 161.2645,73.006665 161.1735,73.338 C161.0825,73.669335 161.037,74.0403313 161.037,74.451 C161.037,74.8803355 161.086,75.2618317 161.184,75.5955 C161.282,75.9291683 161.419666,76.2091655 161.597,76.4355 C161.774334,76.6618345 161.990165,76.8344994 162.2445,76.9535 C162.498835,77.0725006 162.784665,77.132 163.102,77.132 C163.405335,77.132 163.654999,77.0958337 163.851,77.0235 C164.047001,76.9511663 164.210333,76.8706671 164.341,76.782 C164.471667,76.6933329 164.579,76.6128337 164.663,76.5405 C164.747,76.4681663 164.831,76.432 164.915,76.432 C165.022334,76.432 165.101666,76.4716663 165.153,76.551 L165.503,77.006 C165.194998,77.3840019 164.810002,77.6604991 164.348,77.8355 C163.885998,78.0105009 163.398336,78.098 162.885,78.098 C162.441664,78.098 162.029835,78.0163342 161.6495,77.853 C161.269165,77.6896658 160.939001,77.4528349 160.659,77.1425 C160.378999,76.8321651 160.158501,76.4506689 159.9975,75.998 C159.836499,75.5453311 159.756,75.0296696 159.756,74.451 C159.756,73.923664 159.829499,73.4360022 159.9765,72.988 C160.123501,72.5399978 160.338165,72.153835 160.6205,71.8295 C160.902835,71.505165 161.251665,71.2520009 161.667,71.07 C162.082335,70.8879991 162.558331,70.797 163.095,70.797 C163.589669,70.797 164.028331,70.8774992 164.411,71.0385 C164.793669,71.1995008 165.131999,71.4269985 165.426,71.721 L165.097,72.169 Z M166.798,78 L166.798,67.689 L168.044,67.689 L168.044,71.861 C168.347335,71.5389984 168.683331,71.2811676 169.052,71.0875 C169.420669,70.8938324 169.845331,70.797 170.326,70.797 C170.713335,70.797 171.055165,70.861166 171.3515,70.9895 C171.647835,71.117834 171.895166,71.2998322 172.0935,71.5355 C172.291834,71.7711678 172.442333,72.054665 172.545,72.386 C172.647667,72.717335 172.699,73.0836647 172.699,73.485 L172.699,78 L171.453,78 L171.453,73.485 C171.453,72.9483307 171.330501,72.5318348 171.0855,72.2355 C170.840499,71.9391652 170.466003,71.791 169.962,71.791 C169.593331,71.791 169.249168,71.8796658 168.9295,72.057 C168.609832,72.2343342 168.314668,72.4746651 168.044,72.778 L168.044,78 L166.798,78 Z M178.838,76.859 L183.178,76.859 L183.178,78 L177.48,78 L177.48,67.969 L178.838,67.969 L178.838,76.859 Z M187.287,70.797 C187.711669,70.797 188.103665,70.868166 188.463,71.0105 C188.822335,71.152834 189.132665,71.3581653 189.394,71.6265 C189.655335,71.8948347 189.859499,72.2261647 190.0065,72.6205 C190.153501,73.0148353 190.227,73.4639975 190.227,73.968 C190.227,74.164001 190.206,74.2946663 190.164,74.36 C190.122,74.4253337 190.042667,74.458 189.926,74.458 L185.208,74.458 C185.217333,74.9060022 185.277999,75.295665 185.39,75.627 C185.502001,75.958335 185.655999,76.2348322 185.852,76.4565 C186.048001,76.6781678 186.281332,76.8438328 186.552,76.9535 C186.822668,77.0631672 187.125998,77.118 187.462,77.118 C187.774668,77.118 188.044166,77.0818337 188.2705,77.0095 C188.496834,76.9371663 188.691666,76.8590004 188.855,76.775 C189.018334,76.6909996 189.154833,76.6128337 189.2645,76.5405 C189.374167,76.4681663 189.468666,76.432 189.548,76.432 C189.650667,76.432 189.73,76.4716663 189.786,76.551 L190.136,77.006 C189.981999,77.1926676 189.797668,77.3548326 189.583,77.4925 C189.368332,77.6301674 189.138501,77.7433329 188.8935,77.832 C188.648499,77.9206671 188.395335,77.9871664 188.134,78.0315 C187.872665,78.0758336 187.613668,78.098 187.357,78.098 C186.866998,78.098 186.415502,78.0151675 186.0025,77.8495 C185.589498,77.6838325 185.232502,77.4411683 184.9315,77.1215 C184.630498,76.8018317 184.396001,76.4063357 184.228,75.935 C184.059999,75.4636643 183.976,74.9223364 183.976,74.311 C183.976,73.8163309 184.051833,73.3543355 184.2035,72.925 C184.355167,72.4956645 184.573332,72.1235016 184.858,71.8085 C185.142668,71.4934984 185.490331,71.2461676 185.901,71.0665 C186.311669,70.8868324 186.773664,70.797 187.287,70.797 L187.287,70.797 Z M187.315,71.714 C186.712997,71.714 186.239335,71.8878316 185.894,72.2355 C185.548665,72.5831684 185.334,73.0649969 185.25,73.681 L189.107,73.681 C189.107,73.3916652 189.067334,73.1268345 188.988,72.8865 C188.908666,72.6461655 188.792001,72.4385009 188.638,72.2635 C188.483999,72.0884991 188.296168,71.9531671 188.0745,71.8575 C187.852832,71.7618329 187.599668,71.714 187.315,71.714 L187.315,71.714 Z M197.024,78 L196.471,78 C196.349666,78 196.251667,77.9813335 196.177,77.944 C196.102333,77.9066665 196.053333,77.8273339 196.03,77.706 L195.89,77.048 C195.703332,77.2160008 195.521334,77.3664993 195.344,77.4995 C195.166666,77.6325007 194.980001,77.7444995 194.784,77.8355 C194.587999,77.9265005 194.379168,77.9953331 194.1575,78.042 C193.935832,78.0886669 193.689668,78.112 193.419,78.112 C193.143665,78.112 192.885835,78.0735004 192.6455,77.9965 C192.405165,77.9194996 192.196334,77.8040008 192.019,77.65 C191.841666,77.4959992 191.700501,77.3011678 191.5955,77.0655 C191.490499,76.8298322 191.438,76.5510016 191.438,76.229 C191.438,75.9489986 191.514999,75.6795013 191.669,75.4205 C191.823001,75.1614987 192.071498,74.9316677 192.4145,74.731 C192.757502,74.5303323 193.206664,74.365834 193.762,74.2375 C194.317336,74.109166 194.996329,74.0356668 195.799,74.017 L195.799,73.464 C195.799,72.9133306 195.681168,72.4968347 195.4455,72.2145 C195.209832,71.9321653 194.861002,71.791 194.399,71.791 C194.095665,71.791 193.840168,71.8294996 193.6325,71.9065 C193.424832,71.9835004 193.245167,72.0698329 193.0935,72.1655 C192.941833,72.2611671 192.811167,72.3474996 192.7015,72.4245 C192.591833,72.5015004 192.483334,72.54 192.376,72.54 C192.292,72.54 192.2185,72.5178336 192.1555,72.4735 C192.0925,72.4291664 192.042334,72.3743337 192.005,72.309 L191.781,71.91 C192.173002,71.5319981 192.595331,71.2496676 193.048,71.063 C193.500669,70.8763324 194.002331,70.783 194.553,70.783 C194.949669,70.783 195.301998,70.8483327 195.61,70.979 C195.918002,71.1096673 196.176999,71.2916655 196.387,71.525 C196.597001,71.7583345 196.755666,72.040665 196.863,72.372 C196.970334,72.703335 197.024,73.0673314 197.024,73.464 L197.024,78 Z M193.79,77.237 C194.009334,77.237 194.209999,77.2148336 194.392,77.1705 C194.574001,77.1261664 194.745499,77.0631671 194.9065,76.9815 C195.067501,76.8998329 195.221499,76.8006673 195.3685,76.684 C195.515501,76.5673328 195.658999,76.4343341 195.799,76.285 L195.799,74.808 C195.224997,74.8266668 194.737335,74.8721663 194.336,74.9445 C193.934665,75.0168337 193.608001,75.1113328 193.356,75.228 C193.103999,75.3446673 192.920834,75.4823325 192.8065,75.641 C192.692166,75.7996675 192.635,75.976999 192.635,76.173 C192.635,76.3596676 192.665333,76.520666 192.726,76.656 C192.786667,76.791334 192.868333,76.9021662 192.971,76.9885 C193.073667,77.0748338 193.194999,77.1378331 193.335,77.1775 C193.475001,77.2171669 193.626666,77.237 193.79,77.237 L193.79,77.237 Z M201.301,70.79 C201.609002,70.79 201.897165,70.823833 202.1655,70.8915 C202.433835,70.959167 202.677666,71.0583327 202.897,71.189 L204.822,71.189 L204.822,71.651 C204.822,71.8050008 204.724001,71.9029998 204.528,71.945 L203.723,72.057 C203.881667,72.3603349 203.961,72.6986648 203.961,73.072 C203.961,73.4173351 203.894501,73.7311653 203.7615,74.0135 C203.628499,74.2958347 203.444168,74.5373323 203.2085,74.738 C202.972832,74.9386677 202.692835,75.0926661 202.3685,75.2 C202.044165,75.3073339 201.688335,75.361 201.301,75.361 C200.969665,75.361 200.657001,75.3213337 200.363,75.242 C200.213666,75.3353338 200.1005,75.4356661 200.0235,75.543 C199.9465,75.6503339 199.908,75.7553328 199.908,75.858 C199.908,76.0260008 199.975666,76.1531662 200.111,76.2395 C200.246334,76.3258338 200.425999,76.3876665 200.65,76.425 C200.874001,76.4623335 201.128332,76.4856666 201.413,76.495 C201.697668,76.5043334 201.988165,76.5194999 202.2845,76.5405 C202.580835,76.5615001 202.871332,76.5976664 203.156,76.649 C203.440668,76.7003336 203.694999,76.7843328 203.919,76.901 C204.143001,77.0176673 204.322666,77.1786656 204.458,77.384 C204.593334,77.5893344 204.661,77.8553317 204.661,78.182 C204.661,78.4853349 204.585167,78.7793319 204.4335,79.064 C204.281833,79.3486681 204.063668,79.6018322 203.779,79.8235 C203.494332,80.0451678 203.146669,80.2224993 202.736,80.3555 C202.325331,80.4885007 201.861003,80.555 201.343,80.555 C200.824997,80.555 200.371169,80.5036672 199.9815,80.401 C199.591831,80.2983328 199.268668,80.1606675 199.012,79.988 C198.755332,79.8153325 198.562834,79.6158345 198.4345,79.3895 C198.306166,79.1631655 198.242,78.9263346 198.242,78.679 C198.242,78.3289982 198.352832,78.0315012 198.5745,77.7865 C198.796168,77.5414988 199.100665,77.3466674 199.488,77.202 C199.287332,77.1086662 199.127501,76.9838341 199.0085,76.8275 C198.889499,76.6711659 198.83,76.4623346 198.83,76.201 C198.83,76.0983328 198.848666,75.9921672 198.886,75.8825 C198.923334,75.7728328 198.9805,75.6643339 199.0575,75.557 C199.1345,75.4496661 199.228999,75.3470005 199.341,75.249 C199.453001,75.1509995 199.583666,75.064667 199.733,74.99 C199.382998,74.793999 199.108834,74.533835 198.9105,74.2095 C198.712166,73.885165 198.613,73.5060022 198.613,73.072 C198.613,72.7266649 198.679499,72.4128347 198.8125,72.1305 C198.945501,71.8481653 199.130999,71.6078343 199.369,71.4095 C199.607001,71.2111657 199.890498,71.0583339 200.2195,70.951 C200.548502,70.8436661 200.908998,70.79 201.301,70.79 L201.301,70.79 Z M203.513,78.385 C203.513,78.2076658 203.464,78.0653339 203.366,77.958 C203.268,77.8506661 203.135001,77.7678336 202.967,77.7095 C202.798999,77.6511664 202.605334,77.6080001 202.386,77.58 C202.166666,77.5519999 201.935668,77.5321667 201.693,77.5205 C201.450332,77.5088333 201.203001,77.4960001 200.951,77.482 C200.698999,77.4679999 200.458668,77.4423335 200.23,77.405 C199.963999,77.5310006 199.748167,77.6849991 199.5825,77.867 C199.416833,78.0490009 199.334,78.2659987 199.334,78.518 C199.334,78.6766675 199.374833,78.8248326 199.4565,78.9625 C199.538167,79.1001674 199.662999,79.2191662 199.831,79.3195 C199.999001,79.4198338 200.210165,79.4991664 200.4645,79.5575 C200.718835,79.6158336 201.018665,79.645 201.364,79.645 C201.700002,79.645 202.000999,79.614667 202.267,79.554 C202.533001,79.493333 202.758166,79.4070006 202.9425,79.295 C203.126834,79.1829994 203.268,79.0500008 203.366,78.896 C203.464,78.7419992 203.513,78.5716676 203.513,78.385 L203.513,78.385 Z M201.301,74.535 C201.553001,74.535 201.775832,74.5000003 201.9695,74.43 C202.163168,74.3599996 202.325333,74.2620006 202.456,74.136 C202.586667,74.0099994 202.684666,73.8595009 202.75,73.6845 C202.815334,73.5094991 202.848,73.3170011 202.848,73.107 C202.848,72.6729978 202.716168,72.327668 202.4525,72.071 C202.188832,71.8143321 201.805003,71.686 201.301,71.686 C200.801664,71.686 200.420168,71.8143321 200.1565,72.071 C199.892832,72.327668 199.761,72.6729978 199.761,73.107 C199.761,73.3170011 199.794833,73.5094991 199.8625,73.6845 C199.930167,73.8595009 200.029333,74.0099994 200.16,74.136 C200.290667,74.2620006 200.451666,74.3599996 200.643,74.43 C200.834334,74.5000003 201.053665,74.535 201.301,74.535 L201.301,74.535 Z M207.146,70.909 L207.146,75.431 C207.146,75.9676693 207.269665,76.3829985 207.517,76.677 C207.764335,76.9710015 208.137664,77.118 208.637,77.118 C209.001002,77.118 209.343998,77.0316675 209.666,76.859 C209.988002,76.6863325 210.284332,76.4460015 210.555,76.138 L210.555,70.909 L211.801,70.909 L211.801,78 L211.059,78 C210.881666,78 210.769667,77.9136675 210.723,77.741 L210.625,76.978 C210.316998,77.3186684 209.971669,77.5928323 209.589,77.8005 C209.206331,78.0081677 208.767669,78.112 208.273,78.112 C207.885665,78.112 207.543835,78.047834 207.2475,77.9195 C206.951165,77.791166 206.702668,77.6103345 206.502,77.377 C206.301332,77.1436655 206.150834,76.861335 206.0505,76.53 C205.950166,76.198665 205.9,75.8323353 205.9,75.431 L205.9,70.909 L207.146,70.909 Z M216.659,70.797 C217.083669,70.797 217.475665,70.868166 217.835,71.0105 C218.194335,71.152834 218.504665,71.3581653 218.766,71.6265 C219.027335,71.8948347 219.231499,72.2261647 219.3785,72.6205 C219.525501,73.0148353 219.599,73.4639975 219.599,73.968 C219.599,74.164001 219.578,74.2946663 219.536,74.36 C219.494,74.4253337 219.414667,74.458 219.298,74.458 L214.58,74.458 C214.589333,74.9060022 214.649999,75.295665 214.762,75.627 C214.874001,75.958335 215.027999,76.2348322 215.224,76.4565 C215.420001,76.6781678 215.653332,76.8438328 215.924,76.9535 C216.194668,77.0631672 216.497998,77.118 216.834,77.118 C217.146668,77.118 217.416166,77.0818337 217.6425,77.0095 C217.868834,76.9371663 218.063666,76.8590004 218.227,76.775 C218.390334,76.6909996 218.526833,76.6128337 218.6365,76.5405 C218.746167,76.4681663 218.840666,76.432 218.92,76.432 C219.022667,76.432 219.102,76.4716663 219.158,76.551 L219.508,77.006 C219.353999,77.1926676 219.169668,77.3548326 218.955,77.4925 C218.740332,77.6301674 218.510501,77.7433329 218.2655,77.832 C218.020499,77.9206671 217.767335,77.9871664 217.506,78.0315 C217.244665,78.0758336 216.985668,78.098 216.729,78.098 C216.238998,78.098 215.787502,78.0151675 215.3745,77.8495 C214.961498,77.6838325 214.604502,77.4411683 214.3035,77.1215 C214.002498,76.8018317 213.768001,76.4063357 213.6,75.935 C213.431999,75.4636643 213.348,74.9223364 213.348,74.311 C213.348,73.8163309 213.423833,73.3543355 213.5755,72.925 C213.727167,72.4956645 213.945332,72.1235016 214.23,71.8085 C214.514668,71.4934984 214.862331,71.2461676 215.273,71.0665 C215.683669,70.8868324 216.145664,70.797 216.659,70.797 L216.659,70.797 Z M216.687,71.714 C216.084997,71.714 215.611335,71.8878316 215.266,72.2355 C214.920665,72.5831684 214.706,73.0649969 214.622,73.681 L218.479,73.681 C218.479,73.3916652 218.439334,73.1268345 218.36,72.8865 C218.280666,72.6461655 218.164001,72.4385009 218.01,72.2635 C217.855999,72.0884991 217.668168,71.9531671 217.4465,71.8575 C217.224832,71.7618329 216.971668,71.714 216.687,71.714 L216.687,71.714 Z M224.086,78 L224.086,67.969 L227.285,67.969 C227.901003,67.969 228.431831,68.0296661 228.8775,68.151 C229.323169,68.2723339 229.689499,68.4449989 229.9765,68.669 C230.263501,68.8930011 230.475833,69.167165 230.6135,69.4915 C230.751167,69.815835 230.82,70.180998 230.82,70.587 C230.82,70.8343346 230.7815,71.0723322 230.7045,71.301 C230.6275,71.5296678 230.510834,71.741999 230.3545,71.938 C230.198166,72.134001 230.002168,72.3089992 229.7665,72.463 C229.530832,72.6170008 229.254335,72.7429995 228.937,72.841 C229.66967,72.9856674 230.222665,73.2493314 230.596,73.632 C230.969335,74.0146686 231.156,74.5186635 231.156,75.144 C231.156,75.5686688 231.077834,75.9559982 230.9215,76.306 C230.765166,76.6560018 230.536502,76.9569987 230.2355,77.209 C229.934498,77.4610013 229.565836,77.6558326 229.1295,77.7935 C228.693164,77.9311674 228.195003,78 227.635,78 L224.086,78 Z M225.444,73.429 L225.444,76.922 L227.614,76.922 C228.001335,76.922 228.333832,76.8776671 228.6115,76.789 C228.889168,76.7003329 229.117832,76.5755008 229.2975,76.4145 C229.477168,76.2534992 229.609,76.0621678 229.693,75.8405 C229.777,75.6188322 229.819,75.3750013 229.819,75.109 C229.819,74.5909974 229.635835,74.1815015 229.2695,73.8805 C228.903165,73.5794985 228.349004,73.429 227.607,73.429 L225.444,73.429 Z M225.444,72.463 L227.236,72.463 C227.618669,72.463 227.949999,72.4210004 228.23,72.337 C228.510001,72.2529996 228.742166,72.1363341 228.9265,71.987 C229.110834,71.8376659 229.247333,71.6568344 229.336,71.4445 C229.424667,71.2321656 229.469,71.0000013 229.469,70.748 C229.469,70.1599971 229.291668,69.7283347 228.937,69.453 C228.582332,69.1776653 228.03167,69.04 227.285,69.04 L225.444,69.04 L225.444,72.463 Z M234.334,67.689 L234.334,78 L233.088,78 L233.088,67.689 L234.334,67.689 Z M239.402,70.797 C239.920003,70.797 240.387831,70.8833325 240.8055,71.056 C241.223169,71.2286675 241.577832,71.4736651 241.8695,71.791 C242.161168,72.1083349 242.385166,72.4921644 242.5415,72.9425 C242.697834,73.3928356 242.776,73.8956639 242.776,74.451 C242.776,75.0110028 242.697834,75.5149978 242.5415,75.963 C242.385166,76.4110022 242.161168,76.7936651 241.8695,77.111 C241.577832,77.4283349 241.223169,77.6721658 240.8055,77.8425 C240.387831,78.0128342 239.920003,78.098 239.402,78.098 C238.883997,78.098 238.416169,78.0128342 237.9985,77.8425 C237.580831,77.6721658 237.225001,77.4283349 236.931,77.111 C236.636999,76.7936651 236.410667,76.4110022 236.252,75.963 C236.093333,75.5149978 236.014,75.0110028 236.014,74.451 C236.014,73.8956639 236.093333,73.3928356 236.252,72.9425 C236.410667,72.4921644 236.636999,72.1083349 236.931,71.791 C237.225001,71.4736651 237.580831,71.2286675 237.9985,71.056 C238.416169,70.8833325 238.883997,70.797 239.402,70.797 L239.402,70.797 Z M239.402,77.125 C240.102003,77.125 240.624665,76.8905023 240.97,76.4215 C241.315335,75.9524977 241.488,75.2980042 241.488,74.458 C241.488,73.6133291 241.315335,72.9553357 240.97,72.484 C240.624665,72.0126643 240.102003,71.777 239.402,71.777 C239.047332,71.777 238.739335,71.8376661 238.478,71.959 C238.216665,72.0803339 237.998501,72.2553322 237.8235,72.484 C237.648499,72.7126678 237.517834,72.9938317 237.4315,73.3275 C237.345166,73.6611683 237.302,74.0379979 237.302,74.458 C237.302,74.8780021 237.345166,75.253665 237.4315,75.585 C237.517834,75.916335 237.648499,76.1951655 237.8235,76.4215 C237.998501,76.6478345 238.216665,76.8216661 238.478,76.943 C238.739335,77.0643339 239.047332,77.125 239.402,77.125 L239.402,77.125 Z M246.703,70.79 C247.011002,70.79 247.299165,70.823833 247.5675,70.8915 C247.835835,70.959167 248.079666,71.0583327 248.299,71.189 L250.224,71.189 L250.224,71.651 C250.224,71.8050008 250.126001,71.9029998 249.93,71.945 L249.125,72.057 C249.283667,72.3603349 249.363,72.6986648 249.363,73.072 C249.363,73.4173351 249.296501,73.7311653 249.1635,74.0135 C249.030499,74.2958347 248.846168,74.5373323 248.6105,74.738 C248.374832,74.9386677 248.094835,75.0926661 247.7705,75.2 C247.446165,75.3073339 247.090335,75.361 246.703,75.361 C246.371665,75.361 246.059001,75.3213337 245.765,75.242 C245.615666,75.3353338 245.5025,75.4356661 245.4255,75.543 C245.3485,75.6503339 245.31,75.7553328 245.31,75.858 C245.31,76.0260008 245.377666,76.1531662 245.513,76.2395 C245.648334,76.3258338 245.827999,76.3876665 246.052,76.425 C246.276001,76.4623335 246.530332,76.4856666 246.815,76.495 C247.099668,76.5043334 247.390165,76.5194999 247.6865,76.5405 C247.982835,76.5615001 248.273332,76.5976664 248.558,76.649 C248.842668,76.7003336 249.096999,76.7843328 249.321,76.901 C249.545001,77.0176673 249.724666,77.1786656 249.86,77.384 C249.995334,77.5893344 250.063,77.8553317 250.063,78.182 C250.063,78.4853349 249.987167,78.7793319 249.8355,79.064 C249.683833,79.3486681 249.465668,79.6018322 249.181,79.8235 C248.896332,80.0451678 248.548669,80.2224993 248.138,80.3555 C247.727331,80.4885007 247.263003,80.555 246.745,80.555 C246.226997,80.555 245.773169,80.5036672 245.3835,80.401 C244.993831,80.2983328 244.670668,80.1606675 244.414,79.988 C244.157332,79.8153325 243.964834,79.6158345 243.8365,79.3895 C243.708166,79.1631655 243.644,78.9263346 243.644,78.679 C243.644,78.3289982 243.754832,78.0315012 243.9765,77.7865 C244.198168,77.5414988 244.502665,77.3466674 244.89,77.202 C244.689332,77.1086662 244.529501,76.9838341 244.4105,76.8275 C244.291499,76.6711659 244.232,76.4623346 244.232,76.201 C244.232,76.0983328 244.250666,75.9921672 244.288,75.8825 C244.325334,75.7728328 244.3825,75.6643339 244.4595,75.557 C244.5365,75.4496661 244.630999,75.3470005 244.743,75.249 C244.855001,75.1509995 244.985666,75.064667 245.135,74.99 C244.784998,74.793999 244.510834,74.533835 244.3125,74.2095 C244.114166,73.885165 244.015,73.5060022 244.015,73.072 C244.015,72.7266649 244.081499,72.4128347 244.2145,72.1305 C244.347501,71.8481653 244.532999,71.6078343 244.771,71.4095 C245.009001,71.2111657 245.292498,71.0583339 245.6215,70.951 C245.950502,70.8436661 246.310998,70.79 246.703,70.79 L246.703,70.79 Z M248.915,78.385 C248.915,78.2076658 248.866,78.0653339 248.768,77.958 C248.67,77.8506661 248.537001,77.7678336 248.369,77.7095 C248.200999,77.6511664 248.007334,77.6080001 247.788,77.58 C247.568666,77.5519999 247.337668,77.5321667 247.095,77.5205 C246.852332,77.5088333 246.605001,77.4960001 246.353,77.482 C246.100999,77.4679999 245.860668,77.4423335 245.632,77.405 C245.365999,77.5310006 245.150167,77.6849991 244.9845,77.867 C244.818833,78.0490009 244.736,78.2659987 244.736,78.518 C244.736,78.6766675 244.776833,78.8248326 244.8585,78.9625 C244.940167,79.1001674 245.064999,79.2191662 245.233,79.3195 C245.401001,79.4198338 245.612165,79.4991664 245.8665,79.5575 C246.120835,79.6158336 246.420665,79.645 246.766,79.645 C247.102002,79.645 247.402999,79.614667 247.669,79.554 C247.935001,79.493333 248.160166,79.4070006 248.3445,79.295 C248.528834,79.1829994 248.67,79.0500008 248.768,78.896 C248.866,78.7419992 248.915,78.5716676 248.915,78.385 L248.915,78.385 Z M246.703,74.535 C246.955001,74.535 247.177832,74.5000003 247.3715,74.43 C247.565168,74.3599996 247.727333,74.2620006 247.858,74.136 C247.988667,74.0099994 248.086666,73.8595009 248.152,73.6845 C248.217334,73.5094991 248.25,73.3170011 248.25,73.107 C248.25,72.6729978 248.118168,72.327668 247.8545,72.071 C247.590832,71.8143321 247.207003,71.686 246.703,71.686 C246.203664,71.686 245.822168,71.8143321 245.5585,72.071 C245.294832,72.327668 245.163,72.6729978 245.163,73.107 C245.163,73.3170011 245.196833,73.5094991 245.2645,73.6845 C245.332167,73.8595009 245.431333,74.0099994 245.562,74.136 C245.692667,74.2620006 245.853666,74.3599996 246.045,74.43 C246.236334,74.5000003 246.455665,74.535 246.703,74.535 L246.703,74.535 Z" id="The-Bach-League-Blog" fill="#797979" opacity="0.650000036"></path>
            <path d="M138.679,103.818 L138.679,110 L135.72,110 L135.72,103.818 L129.923,94.094 L132.53,94.094 C132.786668,94.094 132.990166,94.1563327 133.1405,94.281 C133.290834,94.4056673 133.417333,94.5633324 133.52,94.754 L136.435,100.067 C136.603668,100.382335 136.750333,100.681165 136.875,100.9635 C136.999667,101.245835 137.113333,101.522665 137.216,101.794 C137.311334,101.515332 137.419499,101.234835 137.5405,100.9525 C137.661501,100.670165 137.806332,100.375002 137.975,100.067 L140.868,94.754 C140.948667,94.5926659 141.069666,94.442334 141.231,94.303 C141.392334,94.163666 141.597665,94.094 141.847,94.094 L144.465,94.094 L138.679,103.818 Z M161.262,102.047 C161.262,103.213006 161.067669,104.292828 160.679,105.2865 C160.290331,106.280172 159.744004,107.139996 159.04,107.866 C158.335996,108.592004 157.489005,109.158498 156.499,109.5655 C155.508995,109.972502 154.412673,110.176 153.21,110.176 C152.007327,110.176 150.909172,109.972502 149.9155,109.5655 C148.921828,109.158498 148.07117,108.592004 147.3635,107.866 C146.65583,107.139996 146.107669,106.280172 145.719,105.2865 C145.330331,104.292828 145.136,103.213006 145.136,102.047 C145.136,100.880994 145.330331,99.8011716 145.719,98.8075 C146.107669,97.8138284 146.65583,96.9540036 147.3635,96.228 C148.07117,95.5019964 148.921828,94.935502 149.9155,94.5285 C150.909172,94.121498 152.007327,93.918 153.21,93.918 C154.412673,93.918 155.508995,94.1233313 156.499,94.534 C157.489005,94.9446687 158.335996,95.5111631 159.04,96.2335 C159.744004,96.9558369 160.290331,97.8138284 160.679,98.8075 C161.067669,99.8011716 161.262,100.880994 161.262,102.047 L161.262,102.047 Z M158.226,102.047 C158.226,101.174329 158.110501,100.391503 157.8795,99.6985 C157.648499,99.0054965 157.316669,98.4170024 156.884,97.933 C156.451331,97.4489976 155.92517,97.078668 155.3055,96.822 C154.68583,96.565332 153.987337,96.437 153.21,96.437 C152.432663,96.437 151.732336,96.565332 151.109,96.822 C150.485664,97.078668 149.955836,97.4489976 149.5195,97.933 C149.083164,98.4170024 148.747668,99.0054965 148.513,99.6985 C148.278332,100.391503 148.161,101.174329 148.161,102.047 C148.161,102.919671 148.278332,103.702497 148.513,104.3955 C148.747668,105.088503 149.083164,105.675164 149.5195,106.1555 C149.955836,106.635836 150.485664,107.004332 151.109,107.261 C151.732336,107.517668 152.432663,107.646 153.21,107.646 C153.987337,107.646 154.68583,107.517668 155.3055,107.261 C155.92517,107.004332 156.451331,106.635836 156.884,106.1555 C157.316669,105.675164 157.648499,105.088503 157.8795,104.3955 C158.110501,103.702497 158.226,102.919671 158.226,102.047 L158.226,102.047 Z M169.996,107.613 C170.568003,107.613 171.079498,107.517668 171.5305,107.327 C171.981502,107.136332 172.362832,106.868668 172.6745,106.524 C172.986168,106.179332 173.224499,105.761336 173.3895,105.27 C173.554501,104.778664 173.637,104.22867 173.637,103.62 L173.637,94.094 L176.596,94.094 L176.596,103.62 C176.596,104.566005 176.443835,105.440496 176.1395,106.2435 C175.835165,107.046504 175.397003,107.739497 174.825,108.3225 C174.252997,108.905503 173.560004,109.360165 172.746,109.6865 C171.931996,110.012835 171.015338,110.176 169.996,110.176 C168.976662,110.176 168.060004,110.012835 167.246,109.6865 C166.431996,109.360165 165.740836,108.905503 165.1725,108.3225 C164.604164,107.739497 164.167835,107.046504 163.8635,106.2435 C163.559165,105.440496 163.407,104.566005 163.407,103.62 L163.407,94.094 L166.366,94.094 L166.366,103.609 C166.366,104.21767 166.448499,104.767664 166.6135,105.259 C166.778501,105.750336 167.014998,106.170165 167.323,106.5185 C167.631002,106.866835 168.010498,107.136332 168.4615,107.327 C168.912502,107.517668 169.423997,107.613 169.996,107.613 L169.996,107.613 Z M182.668,103.785 L182.668,110 L179.709,110 L179.709,94.094 L184.56,94.094 C185.645339,94.094 186.574829,94.2058322 187.3485,94.4295 C188.122171,94.6531678 188.756498,94.9666646 189.2515,95.37 C189.746502,95.7733353 190.109499,96.2554972 190.3405,96.8165 C190.571501,97.3775028 190.687,97.99533 190.687,98.67 C190.687,99.205336 190.608167,99.711331 190.4505,100.188 C190.292833,100.664669 190.065501,101.097331 189.7685,101.486 C189.471499,101.874669 189.104836,102.215665 188.6685,102.509 C188.232164,102.802335 187.735336,103.036999 187.178,103.213 C187.552002,103.425668 187.874665,103.729998 188.146,104.126 L192.128,110 L189.466,110 C189.209332,110 188.991168,109.948667 188.8115,109.846 C188.631832,109.743333 188.479667,109.596668 188.355,109.406 L185.011,104.313 C184.886333,104.122332 184.748834,103.986667 184.5985,103.906 C184.448166,103.825333 184.226335,103.785 183.933,103.785 L182.668,103.785 Z M182.668,101.662 L184.516,101.662 C185.073336,101.662 185.559165,101.592334 185.9735,101.453 C186.387835,101.313666 186.728832,101.121168 186.9965,100.8755 C187.264168,100.629832 187.463999,100.338335 187.596,100.001 C187.728001,99.663665 187.794,99.2933354 187.794,98.89 C187.794,98.0833293 187.528169,97.4636688 186.9965,97.031 C186.464831,96.5983312 185.652672,96.382 184.56,96.382 L182.668,96.382 L182.668,101.662 Z M196.792,94.094 L199.278,94.094 C199.534668,94.094 199.749166,94.1544994 199.9215,94.2755 C200.093834,94.3965006 200.209333,94.5596656 200.268,94.765 L202.974,104.28 C203.04,104.514668 203.1005,104.769499 203.1555,105.0445 C203.2105,105.319501 203.263666,105.610998 203.315,105.919 C203.373667,105.610998 203.437833,105.319501 203.5075,105.0445 C203.577167,104.769499 203.652333,104.514668 203.733,104.28 L206.857,94.765 C206.915667,94.5963325 207.031166,94.442334 207.2035,94.303 C207.375834,94.163666 207.586665,94.094 207.836,94.094 L208.705,94.094 C208.961668,94.094 209.174332,94.1544994 209.343,94.2755 C209.511668,94.3965006 209.629,94.5596656 209.695,94.765 L212.797,104.28 C212.958334,104.749336 213.097666,105.269997 213.215,105.842 C213.266334,105.555999 213.3195,105.281001 213.3745,105.017 C213.4295,104.752999 213.486333,104.507334 213.545,104.28 L216.251,94.765 C216.302334,94.5816657 216.415999,94.4240007 216.592,94.292 C216.768001,94.1599993 216.980665,94.094 217.23,94.094 L219.551,94.094 L214.612,110 L211.939,110 L208.463,99.132 C208.419,98.992666 208.373167,98.8423341 208.3255,98.681 C208.277833,98.5196659 208.232,98.3473343 208.188,98.164 C208.144,98.3473343 208.098167,98.5196659 208.0505,98.681 C208.002833,98.8423341 207.957,98.992666 207.913,99.132 L204.404,110 L201.731,110 L196.792,94.094 Z M224.347,103.785 L224.347,110 L221.388,110 L221.388,94.094 L226.239,94.094 C227.324339,94.094 228.253829,94.2058322 229.0275,94.4295 C229.801171,94.6531678 230.435498,94.9666646 230.9305,95.37 C231.425502,95.7733353 231.788499,96.2554972 232.0195,96.8165 C232.250501,97.3775028 232.366,97.99533 232.366,98.67 C232.366,99.205336 232.287167,99.711331 232.1295,100.188 C231.971833,100.664669 231.744501,101.097331 231.4475,101.486 C231.150499,101.874669 230.783836,102.215665 230.3475,102.509 C229.911164,102.802335 229.414336,103.036999 228.857,103.213 C229.231002,103.425668 229.553665,103.729998 229.825,104.126 L233.807,110 L231.145,110 C230.888332,110 230.670168,109.948667 230.4905,109.846 C230.310832,109.743333 230.158667,109.596668 230.034,109.406 L226.69,104.313 C226.565333,104.122332 226.427834,103.986667 226.2775,103.906 C226.127166,103.825333 225.905335,103.785 225.612,103.785 L224.347,103.785 Z M224.347,101.662 L226.195,101.662 C226.752336,101.662 227.238165,101.592334 227.6525,101.453 C228.066835,101.313666 228.407832,101.121168 228.6755,100.8755 C228.943168,100.629832 229.142999,100.338335 229.275,100.001 C229.407001,99.663665 229.473,99.2933354 229.473,98.89 C229.473,98.0833293 229.207169,97.4636688 228.6755,97.031 C228.143831,96.5983312 227.331672,96.382 226.239,96.382 L224.347,96.382 L224.347,101.662 Z M239.032,110 L236.062,110 L236.062,94.094 L239.032,94.094 L239.032,110 Z M253.816,94.094 L253.816,96.525 L249.031,96.525 L249.031,110 L246.072,110 L246.072,96.525 L241.265,96.525 L241.265,94.094 L253.816,94.094 Z M259.03,110 L256.06,110 L256.06,94.094 L259.03,94.094 L259.03,110 Z M264.156,94.094 C264.288001,94.094 264.398,94.0994999 264.486,94.1105 C264.574,94.1215001 264.652833,94.1434998 264.7225,94.1765 C264.792167,94.2095002 264.86,94.2571664 264.926,94.3195 C264.992,94.3818336 265.065333,94.4643328 265.146,94.567 L273.495,105.204 C273.465667,104.947332 273.4455,104.696168 273.4345,104.4505 C273.4235,104.204832 273.418,103.975668 273.418,103.763 L273.418,94.094 L276.025,94.094 L276.025,110 L274.496,110 C274.261332,110 274.067001,109.963334 273.913,109.89 C273.758999,109.816666 273.608667,109.684668 273.462,109.494 L265.146,98.901 C265.168,99.1356678 265.1845,99.3684988 265.1955,99.5995 C265.2065,99.8305012 265.212,100.041332 265.212,100.232 L265.212,110 L262.605,110 L262.605,94.094 L264.156,94.094 Z M286.541,107.822 C287.208337,107.822 287.789498,107.761501 288.2845,107.6405 C288.779502,107.519499 289.250664,107.352668 289.698,107.14 L289.698,104.247 L287.707,104.247 C287.516332,104.247 287.366001,104.193834 287.256,104.0875 C287.145999,103.981166 287.091,103.851001 287.091,103.697 L287.091,102.025 L292.382,102.025 L292.382,108.46 C291.978665,108.753335 291.558836,109.008166 291.1225,109.2245 C290.686164,109.440834 290.220502,109.618666 289.7255,109.758 C289.230498,109.897334 288.700669,110.001833 288.136,110.0715 C287.571331,110.141167 286.96267,110.176 286.31,110.176 C285.151328,110.176 284.084338,109.974335 283.109,109.571 C282.133662,109.167665 281.290337,108.60667 280.579,107.888 C279.867663,107.16933 279.312169,106.311338 278.9125,105.314 C278.512831,104.316662 278.313,103.227673 278.313,102.047 C278.313,100.851661 278.507331,99.7553383 278.896,98.758 C279.284669,97.7606617 279.836496,96.9026703 280.5515,96.184 C281.266504,95.4653297 282.133662,94.908002 283.153,94.512 C284.172338,94.115998 285.316327,93.918 286.585,93.918 C287.883006,93.918 289.006829,94.1104981 289.9565,94.4955 C290.906171,94.8805019 291.710997,95.3809969 292.371,95.997 L291.513,97.339 C291.344332,97.6103347 291.120668,97.746 290.842,97.746 C290.665999,97.746 290.486334,97.6873339 290.303,97.57 C290.068332,97.430666 289.828168,97.291334 289.5825,97.152 C289.336832,97.012666 289.065501,96.8916672 288.7685,96.789 C288.471499,96.6863328 288.137835,96.6020003 287.7675,96.536 C287.397165,96.4699997 286.970002,96.437 286.486,96.437 C285.701329,96.437 284.991837,96.5689987 284.3575,96.833 C283.723163,97.0970013 283.182336,97.4746642 282.735,97.966 C282.287664,98.4573358 281.943001,99.0476632 281.701,99.737 C281.458999,100.426337 281.338,101.196329 281.338,102.047 C281.338,102.963671 281.466332,103.779496 281.723,104.4945 C281.979668,105.209504 282.338998,105.812664 282.801,106.304 C283.263002,106.795336 283.812997,107.171165 284.451,107.4315 C285.089003,107.691835 285.785663,107.822 286.541,107.822 L286.541,107.822 Z" id="YOUR-WRITING" fill="#41D9D6"></path>
            <g id="Page-1" transform="translate(93.000000, 61.000000)">
                <path d="M1.95975294,9.46161497 C1.92722353,9.48243196 1.94245882,9.53364176 1.98075294,9.52989471 C2.62516471,9.46702739 3.48616471,9.10855876 5.41363529,10.3096993 C9.88045882,13.0941803 12.4696353,13.2777862 14.0833412,8.92578556 C11.2998118,6.04554634 9.11087059,5.01593784 7.21263529,4.8452385 C5.32263529,4.67495549 4.16022353,8.06604373 1.95975294,9.46161497" id="Fill-1" fill="#FF9587"></path>
                <g id="Group-5" transform="translate(6.588235, 0.101629)">
                    <mask id="mask-8" fill="white">
                        <use xlink:href="#path-7"></use>
                    </mask>
                    <g id="Clip-4"></g>
                    <path d="M2.34104706,4.69518961 C0.816694118,4.53822948 0.561811765,2.22712686 0.278105882,0.407305294 C0.265752941,0.328200719 0.362105882,0.281986993 0.413988235,0.341939935 C1.29063529,1.35739288 1.53481176,2.03977392 3.8024,3.29836935 C7.01704706,5.08238569 8.29187059,7.65619876 7.6524,8.31443209 C6.96434118,7.77277392 4.68316471,5.11860725 2.34104706,4.69518961 Z" id="Fill-3" fill="#FF9587" mask="url(#mask-8)"></path>
                </g>
                <path d="M5.2024,5.30125556 C5.85628235,4.46649412 6.45622353,4.34658824 7.44981176,4.36116013 C7.13851765,3.8261634 6.8754,3.06551046 6.61187059,1.9747 C5.3844,3.00680654 5.2024,5.30125556 5.2024,5.30125556" id="Fill-6" fill="#FF9587"></path>
                <path d="M3.11994118,7.60494732 C3.93729412,6.69899176 4.24694118,6.17773425 4.72005882,5.77513359 C4.74970588,4.79590222 4.96629412,3.96280614 5.37517647,2.90363752 C3.73470588,4.10727608 3.11994118,7.60494732 3.11994118,7.60494732" id="Fill-8" fill="#FF9587"></path>
                <g id="Group-12" transform="translate(0.000000, 9.261106)">
                    <mask id="mask-10" fill="white">
                        <use xlink:href="#path-9"></use>
                    </mask>
                    <g id="Clip-11"></g>
                    <path d="M14.4007706,0.031725098 C14.2669471,0.260712026 14.0655941,0.522173464 13.9671824,0.787381961 C17.2238294,2.24332248 18.7037118,5.42624078 18.7037118,9.3131898 C18.7037118,13.9058349 14.4740647,18.3011349 9.97512353,18.2649133 C5.69277059,18.2303571 0.767241176,14.528263 0.767241176,9.30861007 C0.767241176,5.39834601 3.12006471,2.67548327 5.3753,1.43229242 C5.18547647,1.3735885 4.75971176,1.46310157 4.46859412,1.50973163 C2.49871176,2.77332314 0.000123529412,5.2572068 0.000123529412,9.30861007 C0.000123529412,14.9658362 4.49371176,19.5680571 9.98788824,19.5680571 C15.4820647,19.5680571 19.9505353,14.9658362 19.9505353,9.30861007 C19.9505353,5.08942183 17.9600647,1.60590614 14.4007706,0.031725098" id="Fill-10" fill="#4EB39E" mask="url(#mask-10)"></path>
                </g>
                <path d="M20.7185588,11.1650695 C20.5345,12.0781029 19.8575588,13.0789839 19.0743824,13.4224643 C18.9735,12.2113316 18.4979118,11.531865 18.8063235,10.4252336 C19.0525588,9.54051137 20.0930882,8.92474471 20.3821471,8.70033752 C20.5007353,8.60791007 20.9026176,10.2520362 20.7185588,11.1650695" id="Fill-13" fill="#4EB39E"></path>
                <path d="M14.1353471,12.5781687 C15.1651706,12.3650027 16.5099941,12.6535262 17.2223471,13.3575569 C16.0129941,14.019121 15.5254647,14.8505517 14.2387,15.0154223 C13.2101118,15.1469857 12.0987588,14.2843295 11.7343471,14.0690818 C11.5852882,13.9808177 13.1055235,12.7913347 14.1353471,12.5781687" id="Fill-15" fill="#4EB39E"></path>
            </g>
        </g>
    </g>
</svg>