<?xml version="1.0" encoding="UTF-8" standalone="no"?>
<svg width="350px" height="240px" viewBox="0 0 350 240" version="1.1" xmlns="http://www.w3.org/2000/svg" xmlns:xlink="http://www.w3.org/1999/xlink">
    <!-- Generator: Sketch 3.8.3 (29802) - http://www.bohemiancoding.com/sketch -->
    <title>group-sm</title>
    <desc>Created with Sketch.</desc>
    <defs></defs>
    <g id="Page-1" stroke="none" stroke-width="1" fill="none" fill-rule="evenodd">
        <g id="group" fill="#41D9D6">
            <g id="Join" transform="translate(73.000000, 58.000000)">
                <g id="Group-3" transform="translate(59.895537, 16.386515)">
                    <ellipse id="Oval-1" cx="41.8138651" cy="22.037037" rx="22.037037" ry="22.037037"></ellipse>
                    <path d="M59.3716157,40.9084934 C73.3807858,48.9574886 83.0626781,66.1915388 83.0626781,86.1528177 C83.0626781,113.815682 0,113.815682 0,86.1528177 C0,66.0037413 9.86492543,48.633451 24.0876056,40.6837607 C28.1018103,46.1087474 34.5470857,49.6260242 41.8138651,49.6260242 C48.9798073,49.6260242 55.3468865,46.2056849 59.3716157,40.9084934 Z" id="Combined-Shape"></path>
                </g>
                <g id="Group-2" opacity="0.699999988">
                    <ellipse id="Oval-1" cx="41.8138651" cy="22.037037" rx="22.037037" ry="22.037037"></ellipse>
                    <path d="M59.3716157,40.9084934 C73.3807858,48.9574886 83.0626781,66.1915388 83.0626781,86.1528177 C83.0626781,113.815682 0,113.815682 0,86.1528177 C0,66.0037413 9.86492543,48.633451 24.0876056,40.6837607 C28.1018103,46.1087474 34.5470857,49.6260242 41.8138651,49.6260242 C48.9798073,49.6260242 55.3468865,46.2056849 59.3716157,40.9084934 Z" id="Combined-Shape"></path>
                </g>
                <g id="Group" opacity="0.7" transform="translate(120.356125, 0.000000)">
                    <ellipse id="Oval-1" cx="41.8138651" cy="22.037037" rx="22.037037" ry="22.037037"></ellipse>
                    <path d="M59.3716157,40.9084934 C73.3807858,48.9574886 83.0626781,66.1915388 83.0626781,86.1528177 C83.0626781,113.815682 0,113.815682 0,86.1528177 C0,66.0037413 9.86492543,48.633451 24.0876056,40.6837607 C28.1018103,46.1087474 34.5470857,49.6260242 41.8138651,49.6260242 C48.9798073,49.6260242 55.3468865,46.2056849 59.3716157,40.9084934 Z" id="Combined-Shape"></path>
                </g>
            </g>
        </g>
    </g>
</svg>