<?xml version="1.0" encoding="UTF-8" standalone="no"?>
<svg width="132px" height="42px" viewBox="0 0 132 42" version="1.1" xmlns="http://www.w3.org/2000/svg" xmlns:xlink="http://www.w3.org/1999/xlink">
    <!-- Generator: Sketch 3.8.3 (29802) - http://www.bohemiancoding.com/sketch -->
    <title>logoallwhite</title>
    <desc>Created with Sketch.</desc>
    <defs>
        <polygon id="path-1" points="9.67261009 0.385411765 0.342981033 0.385411765 0.342981033 10.1809373 9.67261009 10.1809373 9.67261009 0.385411765"></polygon>
        <polygon id="path-3" points="0.000152941177 23.9607843 24.7006627 23.9607843 24.7006627 0.0388470588 0.000152941177 0.0388470588 0.000152941177 23.9607843"></polygon>
        <polygon id="path-5" points="-5.08038056e-13 0.242839989 -5.08038056e-13 9.530724 16.8846675 9.530724 16.8846675 0.242839989"></polygon>
    </defs>
    <g id="Page-1" stroke="none" stroke-width="1" fill="none" fill-rule="evenodd">
        <g id="logoallwhite">
            <g id="Page-1" transform="translate(1.000000, 3.000000)">
                <path d="M2.42636078,11.585651 C2.38608627,11.6111412 2.40494902,11.6738471 2.45236078,11.6692588 C3.25020392,11.5922784 4.31620392,11.1533373 6.70259608,12.6241216 C12.232949,16.0336902 15.4385961,16.2585137 17.4365176,10.9295333 C13.9902431,7.4027098 11.2801255,6.14196471 8.92992941,5.9329451 C6.58992941,5.72443529 5.15075294,9.87678824 2.42636078,11.585651" id="Fill-1" fill="#FFFFFF"></path>
                <g id="Group-5" transform="translate(8.156863, 0.124443)">
                    <mask id="mask-2" fill="white">
                        <use xlink:href="#path-1"></use>
                    </mask>
                    <g id="Clip-4"></g>
                    <path d="M2.89843922,5.74921176 C1.0111451,5.55701569 0.695576471,2.72709412 0.344321569,0.498741176 C0.329027451,0.401878431 0.448321569,0.345290196 0.512556863,0.418701961 C1.59792941,1.66211373 1.90024314,2.49768235 4.70773333,4.03881961 C8.68777255,6.22332941 10.2661255,9.37493725 9.4744,10.1809373 C8.62251765,9.51768235 5.79820392,6.26768235 2.89843922,5.74921176 Z" id="Fill-3" fill="#FFFFFF" mask="url(#mask-2)"></path>
                </g>
                <path d="M6.44106667,6.49133333 C7.25063529,5.46917647 7.99341961,5.32235294 9.22357647,5.34019608 C8.83816471,4.68509804 8.5124,3.75368627 8.18612549,2.418 C6.6664,3.68180392 6.44106667,6.49133333 6.44106667,6.49133333" id="Fill-6" fill="#FFFFFF"></path>
                <path d="M3.86278431,9.31218039 C4.8747451,8.20284706 5.25811765,7.56457255 5.84388235,7.07159216 C5.88058824,5.87253333 6.1487451,4.85241569 6.65498039,3.55547451 C4.62392157,5.02931765 3.86278431,9.31218039 3.86278431,9.31218039" id="Fill-8" fill="#FFFFFF"></path>
                <g id="Group-12" transform="translate(0.000000, 11.340129)">
                    <mask id="mask-4" fill="white">
                        <use xlink:href="#path-3"></use>
                    </mask>
                    <g id="Clip-11"></g>
                    <path d="M17.8295255,0.0388470588 C17.6638392,0.319239216 17.4145451,0.639396078 17.292702,0.964141176 C21.3247412,2.74692549 23.1569765,6.64437647 23.1569765,11.4039059 C23.1569765,17.0275529 17.9202706,22.4095529 12.3501529,22.3652 C7.04819216,22.3228863 0.949917647,17.7897098 0.949917647,11.398298 C0.949917647,6.61021961 3.86293725,3.27610196 6.65513333,1.75382745 C6.42011373,1.6819451 5.89297647,1.79155294 5.5325451,1.84865098 C3.09364314,3.39590588 0.000152941177,6.43739608 0.000152941177,11.398298 C0.000152941177,18.3255137 5.56364314,23.9608863 12.3659569,23.9608863 C19.1682706,23.9608863 24.7006627,18.3255137 24.7006627,11.398298 C24.7006627,6.2319451 22.2362706,1.96641569 17.8295255,0.0388470588" id="Fill-10" fill="#FFFFFF" mask="url(#mask-4)"></path>
                </g>
                <path d="M25.651549,13.6715137 C25.4236667,14.7895137 24.585549,16.0150824 23.615902,16.4356706 C23.491,14.952651 22.9021765,14.120651 23.2840196,12.7655922 C23.5888824,11.6822588 24.8771569,10.9282588 25.2350392,10.6534745 C25.3818627,10.540298 25.8794314,12.5535137 25.651549,13.6715137" id="Fill-13" fill="#FFFFFF"></path>
                <path d="M17.5009059,15.4018392 C18.7759255,15.1408196 20.4409451,15.4941137 21.3229059,16.3561922 C19.8256118,17.1662706 19.2220039,18.184349 17.6288667,18.3862314 C16.3553765,18.5473294 14.9794157,17.4910157 14.5282392,17.2274471 C14.3436902,17.1193686 16.2258863,15.6628588 17.5009059,15.4018392" id="Fill-15" fill="#FFFFFF"></path>
            </g>
            <g id="Page-1" transform="translate(28.000000, 13.000000)" fill="#FFFFFF">
                <path d="M96.8295319,8.16907131 C95.9145179,7.69991614 93.4565579,12.7094001 94.3341264,14.7718609 C97.1530993,13.906429 98.1526057,8.79855911 96.8295319,8.16907131 M65.7200155,16.2394511 C66.8683437,17.057512 68.1443706,15.1025469 68.1021244,14.3673854 C68.0877223,12.951721 68.1904573,11.1962608 68.0368348,9.48634969 C64.412304,6.94198003 63.6355502,14.7545522 65.7200155,16.2394511 M76.5820864,15.4305001 C78.4485998,14.8702468 77.6891285,10.6751798 77.6891285,9.3615453 C72.3094606,6.82628546 72.9143492,16.4662853 76.5820864,15.4305001 M77.8168272,15.6928626 C74.8499927,17.9921784 72.9412331,26.9425657 76.1192986,26.453369 C78.1144708,26.1463684 77.9157217,17.4683643 77.8168272,15.6928626 M99.9797533,15.9871094 C99.1876373,17.8509763 94.5636,17.5221122 93.5688943,15.7311238 C90.166156,16.0946051 88.7288254,14.9485912 88.4369427,13.3643954 C87.824373,14.4885458 86.7778197,18.1907722 84.6741516,18.007665 C82.328528,17.7270829 82.239235,12.7440174 82.2910826,10.8273136 C81.6026617,11.5506324 79.2954438,14.3181924 78.6934356,15.1271434 C79.1965493,20.0473513 79.1907885,25.1515773 77.6910488,26.6082357 C77.2196198,27.2559431 75.4414393,27.6394661 74.367042,26.2046712 C72.5398944,23.7677973 75.1447559,17.4146165 76.6118508,16.0035071 C74.9460068,16.4498877 73.7448708,15.9834655 73.0122836,15.0068939 C71.7689014,15.6491355 71.4510949,15.8896344 70.5696858,16.3114186 C69.8428594,16.6293509 69.0901091,16.1911691 68.6858899,15.1389862 C68.0320341,15.909676 66.9826004,17.3763553 65.8496345,17.2807023 C63.1314764,17.0520461 62.3374401,11.7537811 64.1137002,9.07914122 C65.6902511,7.22620607 67.8352053,8.65735707 67.8726508,8.67193276 C68.2999134,8.45238637 68.3479204,8.03515711 68.5265066,8.12989913 C68.8884796,8.32120512 68.9192041,8.76940772 68.9355265,9.12560125 C68.9844936,10.2579505 68.9259251,15.9506702 70.2557198,15.8741478 C71.0670386,15.6382037 71.6930503,15.2565027 72.6858357,14.3974477 C71.4693376,9.20485659 73.916736,7.22256215 77.4452528,8.60634214 C77.8638741,7.66074396 78.1461555,7.68442947 78.6185447,7.62248276 C78.8403371,9.8006381 78.7721672,12.0043009 78.6876748,14.3910709 C79.8561659,12.7977653 83.195535,8.2692792 83.3443568,8.32758198 C83.6141563,8.43234479 83.9550063,8.69197434 83.9991727,8.93156232 C84.075984,9.34423667 83.1580895,16.0162608 84.8719405,16.7450455 C87.442237,17.0228947 88.5185546,8.64460334 88.5454386,8.69744023 C88.9342955,8.69744023 90.0826237,8.6746657 90.0547796,8.93976115 C89.4249274,14.8483833 89.4402896,15.0715736 93.1665954,15.2255294 C92.2074149,11.4895967 94.4330209,7.12508719 96.5347687,7.38562773 C99.7137943,7.77917148 97.4421016,14.002082 94.6778567,15.242838 C95.7522541,16.3642555 97.1943853,17.0520461 99.9797533,15.9871094" id="Fill-1"></path>
                <path d="M19.7440707,9.11602785 C18.0881436,8.82249324 16.2271206,17.5086798 19.0289099,18.3791267 C19.9206316,18.6564103 21.2180865,16.808869 20.9799968,13.607412 C20.8783406,12.2402923 21.4615265,9.42073505 19.7440707,9.11602785 M21.3250931,17.1115448 C20.4815245,18.263338 20.1301861,19.5146689 18.2620293,19.1947264 C15.130303,18.657426 15.8258459,5.54181238 20.8462386,8.99922342 C22.0696807,6.8347866 22.1205088,13.4936546 22.0402538,15.7007505 C21.940381,18.4613977 25.8514721,16.6362016 25.95402,15.4275297 C25.1719802,11.0204479 26.283957,7.85961849 27.4342779,7.61991549 C28.9448544,7.30606708 29.3710973,8.3918404 29.3710973,10.0210082 C29.0429437,10.1083576 28.9047269,9.46644113 28.8298223,9.35573085 C27.3397554,5.13248904 26.0984789,16.7895709 28.8735166,16.4350948 C30.8504635,16.063352 31.9784913,13.4652153 32.2424409,12.7481377 C32.4172183,12.2717788 32.0418035,6.82361401 32.0569628,4.45197629 C32.0632049,3.62215702 31.854542,2.77811807 33.0726337,2.66537641 C33.3026979,4.80949941 33.0646082,7.66054312 33.2679208,9.56902589 C34.4342926,8.07291353 35.3706003,7.91852855 36.0099647,8.00994071 C38.7600342,8.40402869 35.7362062,20.7538115 42.6746921,14.8242094 C42.7843739,15.048677 42.9930367,15.2833016 42.6916348,15.498628 C34.6081784,21.2433744 37.4001587,8.93828198 35.2582434,9.24197349 C32.5393842,9.69192446 33.753909,15.6479345 33.6968389,16.2807098 C33.6647369,16.6453428 33.5960743,17.6041548 33.0565827,17.5716527 C32.1051158,17.4446913 32.7632063,14.7287345 32.3146704,13.7323419 C31.2223114,16.6910489 28.350076,18.4695232 26.1787339,16.0663991 C25.3021715,18.558904 21.9002536,17.9484739 21.3250931,17.1115448" id="Fill-6" transform="translate(29.610287, 10.955443) rotate(-356.000000) translate(-29.610287, -10.955443) "></path>
                <path d="M5.23852426,8.30202678 C5.23852426,10.9763403 5.63801555,16.6642081 5.93139196,18.7423112 C8.32833967,19.8565238 13.5119174,17.5834081 13.5074588,13.6496382 C13.3086049,7.71089481 8.88655741,6.61191751 5.23852426,8.30202678 M4.86400118,18.4497923 C4.65801349,16.6804591 3.77699253,3.24693432 4.30845861,3.09559641 C4.84170814,2.94324281 4.83903298,5.25089201 5.10744118,7.35743446 C6.94706289,6.94201697 11.8702579,6.06547593 10.7850327,2.79292059 C9.75509427,-0.308998714 2.49023823,2.9330859 1.57889873,3.34444062 C1.33189185,3.4561666 0.997496238,3.31600128 0.672909569,3.28959333 C2.28335881,1.09671717 11.2068171,-0.458305242 11.8319139,2.44860145 C12.4926796,5.51903435 8.96948752,6.7977889 8.72604752,6.91256194 C12.5898773,6.96740924 16.9432622,12.1484473 13.5074588,17.0511862 C9.30745001,21.2287219 5.37139078,19.892073 2.17813566,17.3305011 C2.09877244,17.2675283 2.48577962,16.9323504 2.60794548,16.9638368 C2.76310505,17.0024331 4.78196279,18.5432358 4.86400118,18.4497923" id="Fill-8" transform="translate(7.713278, 10.294977) rotate(-356.000000) translate(-7.713278, -10.294977) "></path>
                <path d="M46.4766701,20.361244 C46.4766701,18.4026302 46.1673532,6.54740421 46.113855,3.16918251 C46.1070461,2.75888002 46.6089566,1.09638077 46.9571813,0.680272109 C47.6477945,0.747043033 47.1818737,16.6346523 47.4571463,17.3749386 C48.4055236,16.1943513 55.5645562,16.0898402 56.3407665,15.8682382 C56.3903739,16.0995172 56.8018237,16.0917756 56.6140937,16.3791809 C56.3855104,16.7294863 47.9717018,16.8088373 47.8938862,18.0610341 C47.8491423,18.7800311 47.7081015,19.192269 47.7139377,19.9141691 C47.7207466,20.7328387 46.7042807,20.4493042 46.4766701,20.361244" id="Fill-10"></path>
                <path d="M57.3877231,13.3140181 C59.7842341,12.8639936 61.7918882,9.78396715 60.1807722,8.42022874 C59.1284581,7.82171429 57.735294,10.5910962 57.3877231,13.3140181 M56.2470761,13.6137309 C56.2000292,11.4155339 57.3954043,7.40266307 59.7429481,7.58121533 C63.3425153,8.33550752 60.7011684,13.5700038 57.3992448,13.989966 C57.7890619,17.0499508 60.2931087,17.2858949 62.5119937,15.2225231 C62.541758,15.4138291 62.6617756,15.5541202 62.2037885,15.9677055 C60.5581075,17.4526044 56.8913304,17.8443262 56.3478908,14.2086014 C55.440558,14.4235929 55.119871,14.4864506 54.3191137,14.5156019 C54.3968851,14.2441296 54.3940047,14.2022245 54.7876623,14.0090966 C55.0824255,13.8642506 55.7017162,13.749467 56.2470761,13.6137309" id="Fill-12"></path>
            </g>
            <g id="Group-5" transform="translate(30.484300, 8.311393) rotate(-355.000000) translate(-30.484300, -8.311393) translate(21.984300, 3.311393)">
                <mask id="mask-6" fill="white">
                    <use xlink:href="#path-5"></use>
                </mask>
                <g id="Clip-4"></g>
                <path d="M14.211554,6.31538296 C15.0831569,5.63777884 16.4844379,3.90691999 15.6581197,3.42993582 C15.0063256,3.05326163 14.1515136,4.91053152 14.211554,6.31538296 M13.6462587,7.00424636 C13.0687518,4.99497615 14.4491713,2.14330686 15.7364774,2.90433203 C17.2797183,3.81684573 15.1350562,6.27699904 14.2665062,6.78213142 C14.6903504,7.73814689 16.0239588,7.70846333 16.8258538,6.75244785 C16.8894559,6.86759961 16.9077733,6.69922215 16.8492594,7.02983564 C15.9695154,8.10970323 14.5824813,8.04368289 13.9281431,7.18848917 C10.7363363,9.72592211 11.1240546,3.23033944 9.8515042,3.23238659 C8.71277257,3.38080441 8.61457096,8.16292893 8.37186542,8.23304355 C8.22787031,8.27500997 7.84676665,8.02525861 7.81878174,7.86455793 C7.69819219,7.17518275 7.49771844,2.93759809 7.49008619,1.5204638 C7.48855974,1.25484708 7.11000016,1.24154065 6.97923428,1.2896485 C6.13307222,1.60030235 4.06727667,2.47340856 4.07338247,2.57883639 C4.18277805,4.4570895 4.0713472,8.88505839 4.47076826,9.5237668 C4.01690382,9.59439321 3.66582034,9.11945619 3.62002685,8.45567028 C3.57525098,7.8123558 3.51978997,4.09065102 3.51978997,2.78252706 C2.35714395,3.1607366 1.25402948,3.81121608 0.1076656,4.12494065 C0.0715396192,4.04203138 0.0359224546,3.95912212 -0.000203526655,3.87621285 C0.617499871,3.55481151 6.16207476,1.30551385 7.24432775,0.663734727 C7.59032307,0.458508707 7.74958267,0.202615914 7.851346,0.248164831 C8.01569377,0.321861955 8.05996082,0.893526456 8.07369887,1.05627427 C8.1144042,1.53888808 8.1571448,6.30156475 8.36474199,6.20074299 C8.4659965,5.75344239 8.58709486,2.94015702 9.89577125,2.91763845 C12.5563734,2.8731131 10.9999034,9.16961118 13.6462587,7.00424636" id="Fill-3" fill="#FFFFFF" mask="url(#mask-6)"></path>
            </g>
        </g>
    </g>
</svg>