<?xml version="1.0" encoding="UTF-8" standalone="no"?>
<svg width="132px" height="42px" viewBox="0 0 132 42" version="1.1" xmlns="http://www.w3.org/2000/svg" xmlns:xlink="http://www.w3.org/1999/xlink">
    <!-- Generator: Sketch 3.8.3 (29802) - http://www.bohemiancoding.com/sketch -->
    <title>logo</title>
    <desc>Created with Sketch.</desc>
    <defs>
        <polygon id="path-1" points="-1.95399252e-13 0.213866377 -1.95399252e-13 8.3935987 16.3614888 8.3935987 16.3614888 0.213866377"></polygon>
        <polygon id="path-3" points="9.33050483 0.0449292879 0.000875769788 0.0449292879 0.000875769788 9.8816991 9.33050483 9.8816991 9.33050483 0.0449292879"></polygon>
        <polygon id="path-5" points="24.7006627 24.0616718 24.7006627 0.0390106254 0.000152941177 0.0390106254 0.000152941177 24.0616718"></polygon>
    </defs>
    <g id="Page-1" stroke="none" stroke-width="1" fill="none" fill-rule="evenodd">
        <g id="logo">
            <g id="Page-1" transform="translate(28.000000, 15.000000)" fill="#303030">
                <path d="M96.8295319,7.67033253 C95.9145179,7.22982026 93.4565579,11.9334648 94.3341264,13.8700081 C97.1530993,13.0574126 98.1526057,8.26138879 96.8295319,7.67033253 M65.7200155,15.2479989 C66.8683437,16.0161154 68.1443706,14.1805051 68.1021244,13.4902266 C68.0877223,12.1609916 68.1904573,10.5127058 68.0368348,8.90718833 C64.412304,6.51815772 63.6355502,13.8537562 65.7200155,15.2479989 M76.5820864,14.488436 C78.4485998,13.9623873 77.6891285,10.0234379 77.6891285,8.79000351 C72.3094606,6.40952654 72.9143492,15.4609844 76.5820864,14.488436 M77.8168272,14.7347807 C74.8499927,16.8937185 72.9412331,25.2976661 76.1192986,24.8383358 C78.1144708,24.5500783 77.9157217,16.4018844 77.8168272,14.7347807 M99.9797533,15.0110631 C99.1876373,16.7611371 94.5636,16.4523509 93.5688943,14.770706 C90.166156,15.1119961 88.7288254,14.0359486 88.4369427,12.5484713 C87.824373,13.60399 86.7778197,17.0801878 84.6741516,16.9082597 C82.328528,16.6448077 82.239235,11.9659686 82.2910826,10.1662836 C81.6026617,10.8454423 79.2954438,13.444037 78.6934356,14.2035999 C79.1965493,18.8234188 79.1907885,23.6160212 77.6910488,24.9837476 C77.2196198,25.5919112 75.4414393,25.9520193 74.367042,24.6048215 C72.5398944,22.3167239 75.1447559,16.3514179 76.6118508,15.0264597 C74.9460068,15.4455879 73.7448708,15.0076417 73.0122836,14.0906919 C71.7689014,14.6937232 71.4510949,14.9195392 70.5696858,15.3155726 C69.8428594,15.6140945 69.0901091,15.2026646 68.6858899,14.2147196 C68.0320341,14.9383572 66.9826004,16.3154927 65.8496345,16.2256795 C63.1314764,16.0109832 62.3374401,11.0361884 64.1137002,8.52484079 C65.6902511,6.78503118 67.8352053,8.12880743 67.8726508,8.14249325 C68.2999134,7.93635061 68.3479204,7.54459407 68.5265066,7.63355189 C68.8884796,7.81317825 68.9192041,8.23401715 68.9355265,8.56846433 C68.9844936,9.63168131 68.9259251,14.9768486 70.2557198,14.9049981 C71.0670386,14.6834589 71.6930503,14.3250615 72.6858357,13.5184536 C71.4693376,8.64288097 73.916736,6.78160972 77.4452528,8.08090707 C77.8638741,7.19303962 78.1461555,7.21527908 78.6185447,7.15711435 C78.8403371,9.20228878 78.7721672,11.2714134 78.6876748,13.5124661 C79.8561659,12.0164351 83.195535,7.76442252 83.3443568,7.8191658 C83.6141563,7.91753261 83.9550063,8.16131125 83.9991727,8.38627188 C84.075984,8.7737516 83.1580895,15.0384348 84.8719405,15.7227257 C87.442237,15.9836116 88.5185546,8.11683234 88.5454386,8.16644343 C88.9342955,8.16644343 90.0826237,8.14505934 90.0547796,8.39397015 C89.4249274,13.9418586 89.4402896,14.1514227 93.1665954,14.2959792 C92.2074149,10.7881329 94.4330209,6.69008581 96.5347687,6.93471981 C99.7137943,7.30423689 97.4421016,13.1472258 94.6778567,14.3122311 C95.7522541,15.3651837 97.1943853,16.0109832 99.9797533,15.0110631" id="Fill-1"></path>
                <path d="M19.7440707,8.5594754 C18.0881436,8.2838617 16.2271206,16.4397386 19.0289099,17.2570429 C19.9206316,17.5173977 21.2180865,15.7826526 20.9799968,12.7766512 C20.8783406,11.4929971 21.4615265,8.8455796 19.7440707,8.5594754 M21.3250931,16.0668494 C20.4815245,17.1483233 20.1301861,18.3232578 18.2620293,18.0228484 C15.130303,17.5183514 15.8258459,5.20347322 20.8462386,8.44980213 C22.0696807,6.41750868 22.1205088,12.669839 22.0402538,14.742187 C21.940381,17.334291 25.8514721,15.6205269 25.95402,14.4856469 C25.1719802,10.3476266 26.283957,7.37977245 27.4342779,7.15470382 C28.9448544,6.8600165 29.3710973,7.8795011 29.3710973,9.40920486 C29.0429437,9.49122139 28.9047269,8.88849523 28.8298223,8.78454404 C27.3397554,4.81913992 26.0984789,15.7645327 28.8735166,15.4316981 C30.8504635,15.082651 31.9784913,12.6431359 32.2424409,11.9698374 C32.4172183,11.5225612 32.0418035,6.40701819 32.0569628,4.18017389 C32.0632049,3.40101681 31.854542,2.60850819 33.0726337,2.50264964 C33.3026979,4.51586948 33.0646082,7.19285104 33.2679208,8.98481697 C34.4342926,7.58004538 35.3706003,7.43508593 36.0099647,7.52091718 C38.7600342,7.89094527 35.7362062,19.4867482 42.6746921,13.9191606 C42.7843739,14.129924 42.9930367,14.3502243 42.6916348,14.5524046 C34.6081784,19.9464223 37.4001587,8.39258129 35.2582434,8.6777318 C32.5393842,9.10021233 33.753909,14.6925956 33.6968389,15.2867387 C33.6647369,15.62911 33.5960743,16.5293845 33.0565827,16.4988668 C32.1051158,16.3796567 32.7632063,13.8295146 32.3146704,12.8939539 C31.2223114,15.6720256 28.350076,17.3419204 26.1787339,15.085512 C25.3021715,17.4258443 21.9002536,16.8526823 21.3250931,16.0668494" id="Fill-6" transform="translate(29.610287, 10.286591) rotate(-356.000000) translate(-29.610287, -10.286591) "></path>
                <path d="M5.23852426,7.79517079 C5.23852426,10.3062119 5.63801555,15.6468235 5.93139196,17.5980541 C8.32833967,18.6442418 13.5119174,16.5099045 13.5074588,12.8162994 C13.3086049,7.24012866 8.88655741,6.2082462 5.23852426,7.79517079 M4.86400118,17.3233941 C4.65801349,15.6620824 3.77699253,3.04870223 4.30845861,2.90660382 C4.84170814,2.76355172 4.83903298,4.93031414 5.10744118,6.90824779 C6.94706289,6.51819241 11.8702579,5.69516602 10.7850327,2.62240698 C9.75509427,-0.2901337 2.49023823,2.75401491 1.57889873,3.14025557 C1.33189185,3.24516044 0.997496238,3.11355251 0.672909569,3.08875682 C2.28335881,1.02976031 11.2068171,-0.430324755 11.8319139,2.29910925 C12.4926796,5.18208583 8.96948752,6.38276976 8.72604752,6.49053567 C12.5898773,6.54203443 16.9432622,11.4067594 13.5074588,16.0101759 C9.30745001,19.9326643 5.37139078,18.6776206 2.17813566,16.272438 C2.09877244,16.2133098 2.48577962,15.8985952 2.60794548,15.9281593 C2.76310505,15.9643992 4.78196279,17.4111327 4.86400118,17.3233941" id="Fill-8" transform="translate(7.713278, 9.666447) rotate(-356.000000) translate(-7.713278, -9.666447) "></path>
                <path d="M46.4766701,19.1181478 C46.4766701,17.2791114 46.1673532,6.14767158 46.113855,2.97569733 C46.1070461,2.59044466 46.6089566,1.02944444 46.9571813,0.638740083 C47.6477945,0.701434504 47.1818737,15.6190722 47.4571463,16.3141625 C48.4055236,15.2056525 55.5645562,15.1075221 56.3407665,14.8994493 C56.3903739,15.1166082 56.8018237,15.1093393 56.6140937,15.3791979 C56.3855104,15.7081164 47.9717018,15.7826229 47.8938862,16.9583704 C47.8491423,17.6334712 47.7081015,18.0205411 47.7139377,18.6983677 C47.7207466,19.4670558 46.7042807,19.2008317 46.4766701,19.1181478" id="Fill-10"></path>
                <path d="M57.3877231,12.5011697 C59.7842341,12.07862 61.7918882,9.18663562 60.1807722,7.90615628 C59.1284581,7.34418238 57.735294,9.94448779 57.3877231,12.5011697 M56.2470761,12.7825843 C56.2000292,10.7185919 57.3954043,6.95071511 59.7429481,7.11836638 C63.3425153,7.82660746 60.7011684,12.7415268 57.3992448,13.1358495 C57.7890619,16.0090159 60.2931087,16.2305551 62.5119937,14.2931565 C62.541758,14.4727828 62.6617756,14.6045088 62.2037885,14.9928439 C60.5581075,16.3870866 56.8913304,16.754893 56.3478908,13.3411367 C55.440558,13.5430026 55.119871,13.6020226 54.3191137,13.6293943 C54.3968851,13.3744959 54.3940047,13.3351492 54.7876623,13.1538121 C55.0824255,13.0178093 55.7017162,12.9100335 56.2470761,12.7825843" id="Fill-12"></path>
            </g>
            <g id="Group-5" transform="translate(32.816278, 8.223700) rotate(-355.000000) translate(-32.816278, -8.223700) translate(24.316278, 3.723700)">
                <mask id="mask-2" fill="white">
                    <use xlink:href="#path-1"></use>
                </mask>
                <g id="Clip-4"></g>
                <path d="M13.7712028,5.56188493 C14.6157987,4.9651268 15.9736604,3.44077937 15.172946,3.02070492 C14.5413481,2.6889723 13.7130228,4.32464848 13.7712028,5.56188493 M13.2234234,6.16855898 C12.6638109,4.39901788 14.0014575,1.88758563 15.2488759,2.55781172 C16.7442987,3.36145201 14.6660899,5.52808066 13.8244523,5.97294491 C14.2351635,6.81489672 15.5274495,6.78875474 16.3044975,5.94680294 C16.3661288,6.04821576 16.3838786,5.89992768 16.3271778,6.19109517 C15.4746931,7.14212209 14.1306368,7.08397874 13.4965735,6.3308195 C10.4036663,8.56550742 10.779371,2.84492269 9.54625108,2.84672558 C8.44280353,2.97743545 8.34764474,7.18899736 8.11245954,7.2507465 C7.97292619,7.28770584 7.60363119,7.06775269 7.5765134,6.92622546 C7.45966037,6.31910069 7.26539838,2.58710875 7.25800262,1.33905493 C7.25652347,1.10512935 6.88969373,1.09341053 6.76297969,1.13577856 C5.94303632,1.40936782 3.94125034,2.17830239 3.94716695,2.27115147 C4.05317286,3.92530731 3.94519475,7.82496844 4.33223957,8.38747158 C3.89243832,8.44967144 3.55223331,8.03139988 3.50785875,7.44681129 C3.46447028,6.88025165 3.41072775,3.60258917 3.41072775,2.45053948 C2.28410683,2.78362427 1.21517284,3.35649405 0.104329535,3.63278765 C0.0693229331,3.55977042 0.0348093818,3.48675319 -0.000197220293,3.41373595 C0.59836637,3.13068149 5.97114021,1.14975099 7.01985912,0.584543519 C7.35513362,0.40380333 7.5094585,0.178441498 7.60806864,0.218555904 C7.76732403,0.283460112 7.81021944,0.786918444 7.82353181,0.930248568 C7.86297587,1.35528098 7.90439213,5.54971539 8.10555683,5.46092283 C8.20367393,5.06699035 8.32102,2.58936237 9.58914649,2.56953053 C12.1673088,2.53031757 10.6590666,8.0755708 13.2234234,6.16855898" id="Fill-3" fill="#303030" mask="url(#mask-2)"></path>
            </g>
            <g id="Page-1" transform="translate(1.000000, 3.000000)">
                <path d="M2.42636078,11.2923274 C2.38608627,11.3179249 2.40494902,11.3808948 2.45236078,11.3762873 C3.25020392,11.2989828 4.31620392,10.8581934 6.70259608,12.3351705 C12.232949,15.7590952 15.4385961,15.9848654 17.4365176,10.6334472 C13.9902431,7.09177385 11.2801255,5.82572035 8.92992941,5.61582066 C6.58992941,5.40643292 5.15075294,9.57626945 2.42636078,11.2923274" id="Fill-1" fill="#FF9587"></path>
                <g id="Group-5" transform="translate(8.498968, 0.124967)">
                    <mask id="mask-4" fill="white">
                        <use xlink:href="#path-3"></use>
                    </mask>
                    <g id="Clip-4"></g>
                    <path d="M2.55633395,5.43131371 C0.669039835,5.23830838 0.353471207,2.39647136 0.00221630547,0.158735876 C-0.0130778122,0.0614652879 0.106216305,0.00463878638 0.1704516,0.0783596533 C1.25582415,1.32700684 1.55813787,2.16609365 4.36562807,3.7137199 C8.34566729,5.90742764 9.92402023,9.07230541 9.13229474,9.8816991 C8.28041238,9.21565154 5.45609866,5.95196733 2.55633395,5.43131371 Z" id="Fill-3" fill="#FF9587" mask="url(#mask-4)"></path>
                </g>
                <path d="M6.44106667,6.17656 C7.25063529,5.15009932 7.99341961,5.00265759 9.22357647,5.02057585 C8.83816471,4.3627195 8.5124,3.42738601 8.18612549,2.08607579 C6.6664,3.35520099 6.44106667,6.17656 6.44106667,6.17656" id="Fill-6" fill="#FF9587"></path>
                <path d="M3.86278431,9.00928431 C4.8747451,7.8952801 5.25811765,7.25431812 5.84388235,6.75926202 C5.88058824,5.55515453 6.1487451,4.53074165 6.65498039,3.22833967 C4.62392157,4.70838846 3.86278431,9.00928431 3.86278431,9.00928431" id="Fill-8" fill="#FF9587"></path>
                <g id="Group-12" transform="translate(0.000000, 11.045772)">
                    <mask id="mask-6" fill="white">
                        <use xlink:href="#path-5"></use>
                    </mask>
                    <g id="Clip-11"></g>
                    <path d="M17.292702,0.968200718 C21.3247412,2.75849149 23.1569765,6.67235279 23.1569765,11.4519223 C23.1569765,17.0992479 17.9202706,22.503909 12.3501529,22.4593693 C7.04819216,22.4168774 0.949917647,17.8646138 0.949917647,11.4462909 C0.949917647,6.63805211 3.86293725,3.28989607 6.65513333,1.76121199 C6.42011373,1.68902697 5.89297647,1.79909632 5.5325451,1.85643477 C3.09364314,3.41020443 0.000152941177,6.4645009 0.000152941177,11.4462909 C0.000152941177,18.4026738 5.56364314,24.0617742 12.3659569,24.0617742 C19.1682706,24.0617742 24.7006627,18.4026738 24.7006627,11.4462909 C24.7006627,6.25818487 22.2362706,1.97469533 17.8295255,0.0390106254 C17.6638392,0.320583381 17.4145451,0.642088272 17.292702,0.968200718 Z" id="Fill-10" fill="#4EB39E" mask="url(#mask-6)"></path>
                </g>
                <path d="M25.651549,13.3869727 C25.4236667,14.5096801 24.585549,15.740409 23.615902,16.1627681 C23.491,14.6735042 22.9021765,13.8380011 23.2840196,12.4772368 C23.5888824,11.389342 24.8771569,10.6321673 25.2350392,10.356226 C25.3818627,10.242573 25.8794314,12.2642654 25.651549,13.3869727" id="Fill-13" fill="#4EB39E"></path>
                <path d="M17.5009059,15.1245838 C18.7759255,14.8624652 20.4409451,15.2172468 21.3229059,16.0829551 C19.8256118,16.8964444 19.2220039,17.9188094 17.6288667,18.1215418 C16.3553765,18.2833182 14.9794157,17.2225568 14.5282392,16.9578784 C14.3436902,16.8493449 16.2258863,15.3867024 17.5009059,15.1245838" id="Fill-15" fill="#4EB39E"></path>
            </g>
        </g>
    </g>
</svg>