<?xml version="1.0" encoding="UTF-8" standalone="no"?>
<svg width="350px" height="240px" viewBox="0 0 350 240" version="1.1" xmlns="http://www.w3.org/2000/svg" xmlns:xlink="http://www.w3.org/1999/xlink">
    <!-- Generator: Sketch 3.8.3 (29802) - http://www.bohemiancoding.com/sketch -->
    <title>roses-sm</title>
    <desc>Created with Sketch.</desc>
    <defs>
        <polygon id="path-1" points="20.3119256 0.17238207 0.0841682247 0.17238207 0.0841682247 21.3141599 20.3119256 21.3141599 20.3119256 0.17238207"></polygon>
        <polygon id="path-3" points="16.3303148 0.0887475085 0.0176073105 0.0887475085 0.0176073105 17.1385683 16.3303148 17.1385683 16.3303148 0.0887475085"></polygon>
        <polygon id="path-5" points="23.6944064 0.306549482 0.204107597 0.306549482 0.204107597 24.8582915 23.6944064 24.8582915 23.6944064 0.306549482"></polygon>
        <polygon id="path-7" points="16.3303148 0.0887475085 0.0176073105 0.0887475085 0.0176073105 17.1385683 16.3303148 17.1385683 16.3303148 0.0887475085"></polygon>
        <polygon id="path-9" points="20.3119256 0.17238207 0.0841682247 0.17238207 0.0841682247 21.3141599 20.3119256 21.3141599 20.3119256 0.17238207"></polygon>
    </defs>
    <g id="Page-1" stroke="none" stroke-width="1" fill="none" fill-rule="evenodd">
        <g id="roses">
            <g id="Roses" transform="translate(117.000000, 33.000000)">
                <g id="Right" opacity="0.75" transform="translate(0.000000, 27.358209)">
                    <g id="Petals" transform="translate(19.438329, 20.489692) scale(-1, 1) rotate(-257.000000) translate(-19.438329, -20.489692) translate(2.557732, 4.482229)">
                        <path d="M0.179921227,24.3459672 C0.0926012481,24.4009829 0.133497947,24.5363216 0.236292352,24.5264188 C1.96611218,24.3602713 4.27732833,23.4129002 9.4513134,26.5873083 C21.4417834,33.9462134 28.3920116,34.4314522 32.7237457,22.9298621 C25.2518083,15.3178846 19.3759474,12.5968062 14.2804398,12.1456771 C9.20703852,11.6956484 6.08673093,20.6577121 0.179921227,24.3459672" id="Fill-1" fill="#FF757E"></path>
                        <g id="Group-5" transform="translate(13.263794, 0.268587)">
                            <mask id="mask-2" fill="white">
                                <use xlink:href="#path-1"></use>
                            </mask>
                            <g id="Clip-4"></g>
                            <path d="M5.62470876,11.7491237 C1.53282824,11.334305 0.84863752,5.22645784 0.0870746672,0.41698204 C0.0539151816,0.207922237 0.312559169,0.0857872989 0.451829009,0.244232624 C2.80504717,2.92790031 3.46049967,4.7313162 9.54747591,8.0575677 C18.1766794,12.7724164 21.5987383,19.5745623 19.8821822,21.3141599 C18.0351989,19.8826504 11.9117472,12.8681438 5.62470876,11.7491237 Z" id="Fill-3" fill="#FF757E" mask="url(#mask-2)"></path>
                        </g>
                        <path d="M8.88428619,13.3508519 C10.6395283,11.1447208 12.249974,10.8278302 14.9171019,10.8663412 C14.0814829,9.45243672 13.3751859,7.44216166 12.6677835,4.559337 C9.37283595,7.28701728 8.88428619,13.3508519 8.88428619,13.3508519" id="Fill-6" fill="#FF757E"></path>
                        <path d="M3.29426011,19.4391135 C5.48831274,17.0448286 6.31951052,15.6672345 7.58951881,14.6032302 C7.66910158,12.0152898 8.25049789,9.81356002 9.34807687,7.01435928 C4.94449718,10.1953692 3.29426011,19.4391135 3.29426011,19.4391135" id="Fill-8" fill="#FF757E"></path>
                    </g>
                    <path d="M51.8998716,44.3420027 C55.0868891,43.6925147 59.2487441,44.5716069 61.4532784,46.7166932 C57.7106673,48.7323893 56.2018993,51.2656462 52.2197202,51.7679846 C49.0365256,52.1688405 45.5971972,49.5404437 44.4694441,48.8846131 C44.0081485,48.6156845 48.7128541,44.9914907 51.8998716,44.3420027" id="Fill-15" fill="#27A19E" transform="translate(52.945603, 47.970895) scale(-1, 1) rotate(80.000000) translate(-52.945603, -47.970895) "></path>
                    <path d="M56.1915423,91.1270695 C53.4069527,61.5591793 33.2960265,32.817286 33.2960265,32.817286 L36.0726829,31.1512922 C36.0726829,31.1512922 56.4295406,58.7871896 58.2859338,91.1270695 C60.1423269,123.466949 56.1915415,146.898196 56.1915415,146.898196 L54.3351484,143.20221 C54.3351484,143.20221 58.976132,120.69496 56.1915423,91.1270695 Z" id="Rectangle-72" fill="#27A19E"></path>
                </g>
                <g id="Page-1" opacity="0.796641791" transform="translate(55.045865, 86.029232) rotate(8.000000) translate(-55.045865, -86.029232) translate(35.545865, 10.357590)">
                    <g id="Petals" transform="translate(19.489960, 19.425262) rotate(-314.000000) translate(-19.489960, -19.425262) translate(5.519811, 6.328247)">
                        <path d="M0.0948274735,19.5835742 C0.0244081359,19.6279417 0.0573893446,19.7370858 0.140288059,19.7290997 C1.53530405,19.5951098 3.39918804,18.8311009 7.57175664,21.3911074 C17.2414905,27.3257083 22.8465132,27.7170299 26.3398472,18.441554 C20.3140912,12.3028624 15.5754938,10.1084444 11.4662134,9.74463064 C7.37476078,9.38170424 4.85838368,16.6091749 0.0948274735,19.5835742" id="Fill-1" fill="#FF757E"></path>
                        <g id="Group-5" transform="translate(10.696608, 0.216602)">
                            <mask id="mask-4" fill="white">
                                <use xlink:href="#path-3"></use>
                            </mask>
                            <g id="Clip-4"></g>
                            <path d="M4.48578516,9.42482948 C1.18588152,9.0902983 0.634114806,4.16461506 0.0199512157,0.286005549 C-0.00679030489,0.117408933 0.201793556,0.0189130155 0.314107943,0.146691503 C2.21186452,2.31093964 2.74045525,3.76530729 7.64930705,6.44776818 C14.6083421,10.2500655 17.368067,15.735667 15.9837477,17.1385683 C14.494245,15.9841252 9.55597748,10.327265 4.48578516,9.42482948 Z" id="Fill-3" fill="#FF757E" mask="url(#mask-4)"></path>
                        </g>
                        <path d="M7.11447664,10.7165458 C8.52999447,8.93740779 9.82874099,8.68185081 11.9796506,8.71290808 C11.3057643,7.57266255 10.7361699,5.95147299 10.1656841,3.62661439 C7.50846838,5.82635655 7.11447664,10.7165458 7.11447664,10.7165458" id="Fill-6" fill="#FF757E"></path>
                        <path d="M2.60639109,15.6264341 C4.37578837,13.6955592 5.04610916,12.5845963 6.0703094,11.7265282 C6.13448905,9.63947959 6.60335704,7.86389102 7.48850138,5.60647107 C3.93722744,8.17180168 2.60639109,15.6264341 2.60639109,15.6264341" id="Fill-8" fill="#FF757E"></path>
                    </g>
                    <path d="M26.5704505,78.2656177 C24.5881776,48.6977275 20.6236317,33.9137824 20.6236317,33.9137824 L23.2666623,32.0657892 C23.2666623,32.0657892 27.2312082,45.9257378 28.5527234,78.2656177 C29.8742387,110.605498 26.5704505,151.261347 26.5704505,151.261347 L25.2489352,147.56536 C25.2489352,147.56536 28.5527234,107.833508 26.5704505,78.2656177 Z" id="Rectangle-72" fill="#27A19E"></path>
                </g>
                <g id="Left" transform="translate(13.388060, 0.077366)">
                    <g id="Petals" transform="translate(27.260574, 27.562575) rotate(-316.000000) translate(-27.260574, -27.562575) translate(7.469530, 8.935710)">
                        <path d="M0.315304632,28.3790999 C0.213900786,28.4429892 0.261393726,28.6001567 0.380767875,28.5886566 C2.3895909,28.3957111 5.07358385,27.2955383 11.0820826,30.9819477 C25.0064994,39.527773 33.0777321,40.0912761 38.1081331,26.7345908 C29.4310444,17.894875 22.6074641,14.734913 16.6901004,14.2110212 C10.7984086,13.6884072 7.17482557,24.095965 0.315304632,28.3790999" id="Fill-1" fill="#FF757E"></path>
                        <g id="Group-5" transform="translate(15.403116, 0.311907)">
                            <mask id="mask-6" fill="white">
                                <use xlink:href="#path-5"></use>
                            </mask>
                            <g id="Clip-4"></g>
                            <path d="M6.6382837,13.7505075 C1.88642245,13.2687826 1.09187839,6.17579876 0.207482821,0.590601061 C0.168975031,0.347821934 0.469335791,0.205987812 0.631068508,0.389988835 C3.36383798,3.50650615 4.12500863,5.60079557 11.1937552,9.46353925 C21.2147657,14.9388475 25.1887696,22.8381136 23.1953497,24.8582915 C21.0504658,23.1958933 13.9393606,15.0500147 6.6382837,13.7505075 Z" id="Fill-3" fill="#FF757E" mask="url(#mask-6)"></path>
                        </g>
                        <path d="M10.4235994,15.610579 C12.4619451,13.0486203 14.3321401,12.6806182 17.42945,12.7253407 C16.4590537,11.0833871 15.6388378,8.74887417 14.8173382,5.40107779 C10.9909475,8.5687065 10.4235994,15.610579 10.4235994,15.610579" id="Fill-6" fill="#FF757E"></path>
                        <path d="M3.93195624,22.6808182 C6.47988833,19.9003584 7.44515026,18.3005717 8.9199986,17.0649537 C9.0124173,14.0596037 9.68758721,11.5027561 10.9621951,8.25207141 C5.84836058,11.9461475 3.93195624,22.6808182 3.93195624,22.6808182" id="Fill-8" fill="#FF757E"></path>
                    </g>
                    <path d="M21.3385511,82.5555365 C25.9813903,81.609364 32.0443702,82.8900232 35.2559303,86.0149796 C29.8037037,88.9514407 27.6057343,92.641883 21.8045058,93.3736883 C17.1672358,93.9576542 12.1568308,90.1286124 10.5139229,89.1731999 C9.84190862,88.7814254 16.695712,83.501709 21.3385511,82.5555365" id="Fill-15" fill="#27A19E" transform="translate(22.861971, 87.842098) rotate(-342.000000) translate(-22.861971, -87.842098) "></path>
                    <path d="M40.0601764,93.6066441 C37.2755867,64.0387539 31.7064074,49.2548088 31.7064074,49.2548088 L35.4191936,47.4068156 C35.4191936,47.4068156 40.9883729,61.2667642 42.844766,93.6066441 C44.7011591,125.946524 40.0601764,166.602373 40.0601764,166.602373 L38.2037833,162.906387 C38.2037833,162.906387 42.844766,123.174534 40.0601764,93.6066441 Z" id="Rectangle-72" fill="#27A19E"></path>
                </g>
                <g id="Page-1" opacity="0.650303172" transform="translate(73.496953, 81.931464) scale(-1, 1) rotate(-7.000000) translate(-73.496953, -81.931464) translate(53.996953, 6.259822)">
                    <g id="Petals" transform="translate(19.489960, 19.425262) rotate(-314.000000) translate(-19.489960, -19.425262) translate(5.519811, 6.328247)">
                        <path d="M0.0948274735,19.5835742 C0.0244081359,19.6279417 0.0573893446,19.7370858 0.140288059,19.7290997 C1.53530405,19.5951098 3.39918804,18.8311009 7.57175664,21.3911074 C17.2414905,27.3257083 22.8465132,27.7170299 26.3398472,18.441554 C20.3140912,12.3028624 15.5754938,10.1084444 11.4662134,9.74463064 C7.37476078,9.38170424 4.85838368,16.6091749 0.0948274735,19.5835742" id="Fill-1" fill="#FF757E"></path>
                        <g id="Group-5" transform="translate(10.696608, 0.216602)">
                            <mask id="mask-8" fill="white">
                                <use xlink:href="#path-7"></use>
                            </mask>
                            <g id="Clip-4"></g>
                            <path d="M4.48578516,9.42482948 C1.18588152,9.0902983 0.634114806,4.16461506 0.0199512157,0.286005549 C-0.00679030489,0.117408933 0.201793556,0.0189130155 0.314107943,0.146691503 C2.21186452,2.31093964 2.74045525,3.76530729 7.64930705,6.44776818 C14.6083421,10.2500655 17.368067,15.735667 15.9837477,17.1385683 C14.494245,15.9841252 9.55597748,10.327265 4.48578516,9.42482948 Z" id="Fill-3" fill="#FF757E" mask="url(#mask-8)"></path>
                        </g>
                        <path d="M7.11447664,10.7165458 C8.52999447,8.93740779 9.82874099,8.68185081 11.9796506,8.71290808 C11.3057643,7.57266255 10.7361699,5.95147299 10.1656841,3.62661439 C7.50846838,5.82635655 7.11447664,10.7165458 7.11447664,10.7165458" id="Fill-6" fill="#FF757E"></path>
                        <path d="M2.60639109,15.6264341 C4.37578837,13.6955592 5.04610916,12.5845963 6.0703094,11.7265282 C6.13448905,9.63947959 6.60335704,7.86389102 7.48850138,5.60647107 C3.93722744,8.17180168 2.60639109,15.6264341 2.60639109,15.6264341" id="Fill-8" fill="#FF757E"></path>
                    </g>
                    <path d="M26.5704505,78.2656177 C24.5881776,48.6977275 20.6236317,33.9137824 20.6236317,33.9137824 L23.2666623,32.0657892 C23.2666623,32.0657892 27.2312082,45.9257378 28.5527234,78.2656177 C29.8742387,110.605498 26.5704505,151.261347 26.5704505,151.261347 L25.2489352,147.56536 C25.2489352,147.56536 28.5527234,107.833508 26.5704505,78.2656177 Z" id="Rectangle-72" fill="#27A19E"></path>
                </g>
                <g id="Right" transform="translate(88.477612, 91.351800) scale(-1, 1) translate(-88.477612, -91.351800) translate(59.955224, 14.515979)">
                    <g id="Petals" transform="translate(22.980803, 22.781099) rotate(-330.000000) translate(-22.980803, -22.781099) translate(6.100206, 6.773636)">
                        <path d="M0.179921227,24.3459672 C0.0926012481,24.4009829 0.133497947,24.5363216 0.236292352,24.5264188 C1.96611218,24.3602713 4.27732833,23.4129002 9.4513134,26.5873083 C21.4417834,33.9462134 28.3920116,34.4314522 32.7237457,22.9298621 C25.2518083,15.3178846 19.3759474,12.5968062 14.2804398,12.1456771 C9.20703852,11.6956484 6.08673093,20.6577121 0.179921227,24.3459672" id="Fill-1" fill="#FF757E"></path>
                        <g id="Group-5" transform="translate(13.263794, 0.268587)">
                            <mask id="mask-10" fill="white">
                                <use xlink:href="#path-9"></use>
                            </mask>
                            <g id="Clip-4"></g>
                            <path d="M5.62470876,11.7491237 C1.53282824,11.334305 0.84863752,5.22645784 0.0870746672,0.41698204 C0.0539151816,0.207922237 0.312559169,0.0857872989 0.451829009,0.244232624 C2.80504717,2.92790031 3.46049967,4.7313162 9.54747591,8.0575677 C18.1766794,12.7724164 21.5987383,19.5745623 19.8821822,21.3141599 C18.0351989,19.8826504 11.9117472,12.8681438 5.62470876,11.7491237 Z" id="Fill-3" fill="#FF757E" mask="url(#mask-10)"></path>
                        </g>
                        <path d="M8.88428619,13.3508519 C10.6395283,11.1447208 12.249974,10.8278302 14.9171019,10.8663412 C14.0814829,9.45243672 13.3751859,7.44216166 12.6677835,4.559337 C9.37283595,7.28701728 8.88428619,13.3508519 8.88428619,13.3508519" id="Fill-6" fill="#FF757E"></path>
                        <path d="M3.29426011,19.4391135 C5.48831274,17.0448286 6.31951052,15.6672345 7.58951881,14.6032302 C7.66910158,12.0152898 8.25049789,9.81356002 9.34807687,7.01435928 C4.94449718,10.1953692 3.29426011,19.4391135 3.29426011,19.4391135" id="Fill-8" fill="#FF757E"></path>
                    </g>
                    <path d="M39.0773955,70.120949 C42.264413,69.471461 46.4262679,70.3505531 48.6308022,72.4956394 C44.8881911,74.5113356 43.3794231,77.0445924 39.3972441,77.5469308 C36.2140495,77.9477867 32.7747211,75.31939 31.646968,74.6635593 C31.1856724,74.3946307 35.8903779,70.7704369 39.0773955,70.120949" id="Fill-15" fill="#27A19E" transform="translate(40.123127, 73.749841) rotate(31.000000) translate(-40.123127, -73.749841) "></path>
                    <path d="M50.153603,50.7449878 C53.3406205,50.0954998 57.5024754,50.974592 59.7070097,53.1196783 C55.9643986,55.1353744 54.4556306,57.6686313 50.4734516,58.1709697 C47.290257,58.5718255 43.8509286,55.9434288 42.7231755,55.2875982 C42.2618799,55.0186695 46.9665855,51.3944758 50.153603,50.7449878" id="Fill-15" fill="#27A19E" transform="translate(51.199335, 54.373880) scale(-1, 1) rotate(80.000000) translate(-51.199335, -54.373880) "></path>
                    <path d="M54.4452737,97.5300546 C51.660684,67.9621644 31.5497579,39.2202711 31.5497579,39.2202711 L34.3264142,37.5542772 C34.3264142,37.5542772 54.683272,65.1901747 56.5396651,97.5300546 C58.3960582,129.869935 54.4452729,153.301181 54.4452729,153.301181 L52.5888798,149.605195 C52.5888798,149.605195 57.2298633,127.097945 54.4452737,97.5300546 Z" id="Rectangle-72" fill="#27A19E"></path>
                </g>
            </g>
        </g>
    </g>
</svg>