<?xml version="1.0" encoding="UTF-8" standalone="no"?>
<svg width="468px" height="110px" viewBox="0 0 468 110" version="1.1" xmlns="http://www.w3.org/2000/svg" xmlns:xlink="http://www.w3.org/1999/xlink">
    <!-- Generator: Sketch 40 (33762) - http://www.bohemiancoding.com/sketch -->
    <title>Artboard 9</title>
    <desc>Created with Sketch.</desc>
    <defs></defs>
    <g id="Page-1" stroke="none" stroke-width="1" fill="none" fill-rule="evenodd">
        <g id="Artboard-9" fill="#FFFFFF">
            <path d="M7.62890625,52 L5.63671875,52 L5.63671875,36.6367188 L0.2109375,36.6367188 L0.2109375,34.8671875 L13.0546875,34.8671875 L13.0546875,36.6367188 L7.62890625,36.6367188 L7.62890625,52 Z M36.640625,52 L34.6484375,52 L34.6484375,43.9375 L25.625,43.9375 L25.625,52 L23.6328125,52 L23.6328125,34.8671875 L25.625,34.8671875 L25.625,42.15625 L34.6484375,42.15625 L34.6484375,34.8671875 L36.640625,34.8671875 L36.640625,52 Z M58.890625,52 L49.3398438,52 L49.3398438,34.8671875 L58.890625,34.8671875 L58.890625,36.6367188 L51.3320312,36.6367188 L51.3320312,42.15625 L58.4335938,42.15625 L58.4335938,43.9140625 L51.3320312,43.9140625 L51.3320312,50.21875 L58.890625,50.21875 L58.890625,52 Z" id="THE"></path>
            <path d="M83.5546875,0.6015625 L101.484375,0.6015625 C108.468785,0.6015625 113.65428,1.6386615 117.041016,3.71289062 C120.427751,5.78711975 122.121094,9.01560309 122.121094,13.3984375 C122.121094,16.2812644 121.38282,18.7421773 119.90625,20.78125 C118.42968,22.8203227 116.484387,24.1328096 114.070312,24.71875 L114.070312,25.0703125 C117.257828,25.9140667 119.566399,27.3203027 120.996094,29.2890625 C122.425788,31.2578223 123.140625,33.8124843 123.140625,36.953125 C123.140625,41.6172108 121.388689,45.2910022 117.884766,47.9746094 C114.380842,50.6582165 109.605499,52 103.558594,52 L83.5546875,52 L83.5546875,0.6015625 Z M97.4414062,20.3242188 L101.625,20.3242188 C103.617197,20.3242188 105.158198,19.9140666 106.248047,19.09375 C107.337896,18.2734334 107.882812,17.0546956 107.882812,15.4375 C107.882812,12.5546731 105.703147,11.1132812 101.34375,11.1132812 L97.4414062,11.1132812 L97.4414062,20.3242188 Z M97.4414062,30.484375 L97.4414062,41.2773438 L102.328125,41.2773438 C106.664084,41.2773438 108.832031,39.449237 108.832031,35.7929688 C108.832031,34.0820227 108.251959,32.7695358 107.091797,31.8554688 C105.931635,30.9414017 104.250011,30.484375 102.046875,30.484375 L97.4414062,30.484375 Z M182.864063,52 L180.332813,42.3671875 L163.633595,42.3671875 L161.032032,52 L145.77422,52 L162.543751,0.390625 L181.071095,0.390625 L198.051563,52 L182.864063,52 Z M177.450001,30.9765625 L175.235157,22.5390625 C174.719529,20.6640531 174.092583,18.2382961 173.354298,15.2617188 C172.616013,12.2851414 172.129689,10.1523502 171.895313,8.86328125 C171.684375,10.0585997 171.268363,12.02733 170.647266,14.7695312 C170.02617,17.5117325 168.64923,22.9140222 166.516407,30.9765625 L177.450001,30.9765625 Z M245.751564,11.2539062 C242.44686,11.2539062 239.868761,12.6074083 238.017189,15.3144531 C236.165617,18.0214979 235.239845,21.7538825 235.239845,26.5117188 C235.239845,36.4023932 239.001526,41.3476562 246.525002,41.3476562 C248.79845,41.3476562 251.001553,41.0312532 253.134377,40.3984375 C255.2672,39.7656218 257.411709,39.0039107 259.56797,38.1132812 L259.56797,49.8554688 C255.278886,51.7539157 250.427372,52.703125 245.013283,52.703125 C237.255431,52.703125 231.308225,50.4531475 227.171486,45.953125 C223.034746,41.4531025 220.966408,34.9492613 220.966408,26.4414062 C220.966408,21.1210671 221.968351,16.4453327 223.972267,12.4140625 C225.976183,8.38279234 228.858967,5.28321396 232.620705,3.11523438 C236.382442,0.947254785 240.806226,-0.13671875 245.892189,-0.13671875 C251.446904,-0.13671875 256.755445,1.07030043 261.81797,3.484375 L257.564064,14.4179688 C255.665617,13.5273393 253.767199,12.7773468 251.868752,12.1679688 C249.970305,11.5585907 247.931262,11.2539062 245.751564,11.2539062 L245.751564,11.2539062 Z M334.338284,52 L320.381252,52 L320.381252,31.046875 L304.244534,31.046875 L304.244534,52 L290.287502,52 L290.287502,0.6015625 L304.244534,0.6015625 L304.244534,19.65625 L320.381252,19.65625 L320.381252,0.6015625 L334.338284,0.6015625 L334.338284,52 Z" id="BACH"></path>
            <path d="M213.710938,109 L213.710938,74.734375 L217.695312,74.734375 L217.695312,105.390625 L232.8125,105.390625 L232.8125,109 L213.710938,109 Z M273.956562,109 L254.855,109 L254.855,74.734375 L273.956562,74.734375 L273.956562,78.2734375 L258.839375,78.2734375 L258.839375,89.3125 L273.0425,89.3125 L273.0425,92.828125 L258.839375,92.828125 L258.839375,105.4375 L273.956562,105.4375 L273.956562,109 Z M319.319374,109 L315.053749,98.1015625 L301.319374,98.1015625 L297.100624,109 L293.069374,109 L306.616249,74.59375 L309.967812,74.59375 L323.444374,109 L319.319374,109 Z M313.811562,94.515625 L309.827187,83.8984375 C309.311559,82.5546808 308.780314,80.9062598 308.233437,78.953125 C307.889685,80.4531325 307.397502,82.1015535 306.756874,83.8984375 L302.725624,94.515625 L313.811562,94.515625 Z M358.494686,91.046875 L370.143124,91.046875 L370.143124,107.710938 C368.330615,108.289065 366.486883,108.726561 364.611874,109.023438 C362.736864,109.320314 360.565011,109.46875 358.096249,109.46875 C352.908723,109.46875 348.869701,107.925797 345.979061,104.839844 C343.088422,101.753891 341.643124,97.4297153 341.643124,91.8671875 C341.643124,88.3046697 342.35796,85.1836071 343.787655,82.5039062 C345.21735,79.8242054 347.275923,77.7773508 349.963436,76.3632812 C352.65095,74.9492117 355.799356,74.2421875 359.408749,74.2421875 C363.065017,74.2421875 366.471233,74.9140558 369.627499,76.2578125 L368.080624,79.7734375 C364.986858,78.4609309 362.010325,77.8046875 359.150936,77.8046875 C354.97904,77.8046875 351.72126,79.0468626 349.377499,81.53125 C347.033737,84.0156374 345.861874,87.4609155 345.861874,91.8671875 C345.861874,96.4922106 346.990769,99.999988 349.248592,102.390625 C351.506416,104.781262 354.822789,105.976562 359.197811,105.976562 C361.572823,105.976562 363.893112,105.703128 366.158749,105.15625 L366.158749,94.609375 L358.494686,94.609375 L358.494686,91.046875 Z M420.474686,74.734375 L420.474686,96.90625 C420.474686,100.81252 419.29501,103.882801 416.935623,106.117188 C414.576236,108.351574 411.334081,109.46875 407.209061,109.46875 C403.08404,109.46875 399.892666,108.343761 397.634842,106.09375 C395.377018,103.843739 394.248123,100.75002 394.248123,96.8125 L394.248123,74.734375 L398.232498,74.734375 L398.232498,97.09375 C398.232498,99.9531393 399.01374,102.14843 400.576248,103.679688 C402.138756,105.210945 404.435608,105.976562 407.466873,105.976562 C410.357513,105.976562 412.584053,105.207039 414.146561,103.667969 C415.709068,102.128899 416.490311,99.9218894 416.490311,97.046875 L416.490311,74.734375 L420.474686,74.734375 Z M464.87656,109 L445.774998,109 L445.774998,74.734375 L464.87656,74.734375 L464.87656,78.2734375 L449.759373,78.2734375 L449.759373,89.3125 L463.962498,89.3125 L463.962498,92.828125 L449.759373,92.828125 L449.759373,105.4375 L464.87656,105.4375 L464.87656,109 Z" id="LEAGUE"></path>
        </g>
    </g>
</svg>